<svg xmlns="http://www.w3.org/2000/svg" viewBox="0 0 498.52 439.87"><title>vedic_academy_LOGOS_03_6</title><path d="M438,260c-32.73-37.13-30.51-24.64-14.35-72-44.84-21.66-37.79-12.4-40.7-60.94-49.41-2.93-39.35,3.83-61-40.74-47,16-34.79,18.6-71.93-14.35-37.37,32.94-25.12,30.62-71.93,14.38-21.63,44.48-11.43,37.81-61,40.74-3,49.36,3.81,39.3-40.76,60.95,16.1,47.18,18.59,34.7-14.31,72C95.17,297.42,92.48,284.9,76.42,332c43.69,21.25,38.06,11.34,40.67,61,49.8,3,39.14-3.87,61,40.7C225,417.68,212.66,414.9,250,448c37.35-33.14,25.06-30.35,71.93-14.35,21.63-44.53,11.41-37.75,61-40.74,3-49.58-3.9-39.26,40.77-61C407.34,285.07,405.21,297,438,260Z" transform="translate(-0.74 -29.6)" fill="#bcbec0"/><path d="M250,113.54A146,146,0,1,0,396.18,259.36c-0.1-81.24-66.31-146-146.18-145.82h0Z" transform="translate(-0.74 -29.6)" fill="#fff"/><path d="M252.34,117.85a141.15,141.15,0,0,1,96.48,40L316.37,190.3l-64,64V117.85h0Z" transform="translate(-0.74 -29.6)" fill="#939598"/><path d="M151.17,157.87a141.16,141.16,0,0,1,96.48-40V254.36Z" transform="translate(-0.74 -29.6)" fill="#bcbec0"/><path d="M392.17,257.68H255.66l96.43-96.49A141.14,141.14,0,0,1,392.17,257.68Z" transform="translate(-0.74 -29.6)" fill="#bcbec0"/><path d="M147.85,161.19l96.49,96.48H107.83A141.15,141.15,0,0,1,147.85,161.19Z" transform="translate(-0.74 -29.6)" fill="#939598"/><path d="M247.65,402.19a141.14,141.14,0,0,1-96.48-40l96.48-96.48V402.19Z" transform="translate(-0.74 -29.6)" fill="#939598"/><path d="M147.85,358.84a141.14,141.14,0,0,1-40-96.48H244.34Z" transform="translate(-0.74 -29.6)" fill="#bcbec0"/><path d="M252.34,402.19V265.68l96.48,96.48A141.14,141.14,0,0,1,252.34,402.19Z" transform="translate(-0.74 -29.6)" fill="#bcbec0"/><path d="M352.09,358.84l-96.48-96.48H392.17A141.14,141.14,0,0,1,352.09,358.84Z" transform="translate(-0.74 -29.6)" fill="#939598"/><path d="M250,198.51A61.47,61.47,0,1,0,311.47,260,61.47,61.47,0,0,0,250,198.51h0Z" transform="translate(-0.74 -29.6)" fill="#fff"/><path d="M250,316.34A56.32,56.32,0,1,1,306.32,260,56.32,56.32,0,0,1,250,316.34h0v0Z" transform="translate(-0.74 -29.6)" fill="#bcbec0"/><path d="M285.07,246.18c-1-7.28,1.16-9.34,4.78-14a39.58,39.58,0,0,0-14.91,1.11c-2.37-4.78-1.56-5.59.83-10.67-4.29.5-8.8,0.75-14.69,4.46-8.84-8.38-8.08-8.34-11-15.84l0,0c-2.5,6.36-2.2,7.72-11,15.88-5.82-3.7-10.47-4-14.73-4.46,2.34,4.93,3.22,5.87.84,10.67a40.73,40.73,0,0,0-15-1.15c3.64,4.69,5.8,6.69,4.77,14-8.78-.68-14,1.31-18.77,2.82,7.17,4,8.51,4.28,10.23,12.28,0.73,3.4,1.63,7.59,5.17,11.61-1.73,3.14-4.1,3.7-7.55,5.1,1.93,2.15,6.57,8.45,18.08,10.62-0.32,3.81-.79,3.44-6.73,6,7,1.45,14.75,1.68,21.36-.49,7.06,7.62,7.7,2.47,13.32,12.42,5.59-9.9,6.3-4.85,13.32-12.42,6.44,2.18,14.76,1.86,21.44.46-5.89-2.5-6.4-2.13-6.73-6A29.2,29.2,0,0,0,296.09,278c-3.46-1.4-5.83-1.94-7.57-5.1,3.54-4,4.44-8.2,5.17-11.61,1.71-8,3.07-8.24,10.24-12.28C299.53,247.65,294,245.49,285.07,246.18Z" transform="translate(-0.74 -29.6)" fill="#fff"/><path d="M238.85,292c3,4.15,7.9,4.76,11.16,8.78,3.25-4,8.1-4.63,11.16-8.79-6.54-3.26-8.69-5.66-10.39-9.18a6.41,6.41,0,0,1-1.55,0c-1.7,3.2-3.27,5.64-10.4,9.14Z" transform="translate(-0.74 -29.6)" fill="#231f20"/><path d="M250.26,281.16c6.85,0,20.47-5.88,21.83-20a33.93,33.93,0,0,0-5-23.13c-4.51-6.39-8.39-8.6-12.9-13.53A27.93,27.93,0,0,1,250,219.4a29.3,29.3,0,0,1-4.13,5.17c-4.42,4.83-8.39,7.14-12.9,13.53a33.58,33.58,0,0,0-5.06,23.11C229.13,273.31,240.77,281.16,250.26,281.16Z" transform="translate(-0.74 -29.6)" fill="#231f20"/><path d="M274.58,286.36c-0.29-1.77-1-3.85-4.09-5.8-1.23.17-2.5,0.29-3.78,0.34A43.06,43.06,0,0,1,253,283.24c4.12,6.87,15.22,10.49,23,9.8C274.5,290.32,275,288.93,274.58,286.36Z" transform="translate(-0.74 -29.6)" fill="#231f20"/><path d="M290.9,279.3a11.2,11.2,0,0,1-5.34-5.16,27.62,27.62,0,0,1-12.44,6.16,9.07,9.07,0,0,1,3.25,5.55A30.93,30.93,0,0,0,290.9,279.3Z" transform="translate(-0.74 -29.6)" fill="#231f20"/><path d="M271.84,278.61a25.09,25.09,0,0,0,14.08-7.52c6.76-7.42,2.64-15.55,10.57-21.31a39.51,39.51,0,0,0-12.34-.67c0.81,4.68,2,10.24-.74,16.72A25.5,25.5,0,0,1,271.84,278.61Z" transform="translate(-0.74 -29.6)" fill="#231f20"/><path d="M257.44,281.27c10.95-1.18,20.72-6.47,24.61-16.68,2.09-5.5,1.24-10.25.43-14.85s-1.85-9.7,1.47-14.93a36.5,36.5,0,0,0-14.57,3.75A34.8,34.8,0,0,1,274,259.32C274,265.93,270.43,276.53,257.44,281.27Z" transform="translate(-0.74 -29.6)" fill="#231f20"/><path d="M268.41,237a33.16,33.16,0,0,1,4.08-1.74c-1.36-2.62-2.8-5.56-1.79-9a25,25,0,0,0-8.52,3.65h0A83,83,0,0,1,268.41,237Z" transform="translate(-0.74 -29.6)" fill="#231f20"/><path d="M223.95,293c11.12,0.6,20.39-4.74,23.06-9.84a43.15,43.15,0,0,1-13.81-2.34c-1.28,0-2.55-.17-3.78-0.34-6.18,4-3,7.91-5.51,12.48h0Z" transform="translate(-0.74 -29.6)" fill="#231f20"/><path d="M223.62,285.62a9.08,9.08,0,0,1,3.44-5.72,27.64,27.64,0,0,1-12.66-6.21,11.18,11.18,0,0,1-5.36,5.17A30.81,30.81,0,0,0,223.62,285.62Z" transform="translate(-0.74 -29.6)" fill="#231f20"/><path d="M203.49,249.81c7.85,5.69,3.85,13.91,10.57,21.31a25.26,25.26,0,0,0,14,7.49,26.09,26.09,0,0,1-11.59-12.72c-3.28-7.85-.8-14.76-0.8-16.72A39.37,39.37,0,0,0,203.49,249.81Z" transform="translate(-0.74 -29.6)" fill="#231f20"/><path d="M242.55,281.28c-11.43-3.89-18.23-13.73-16.37-29.63a31.68,31.68,0,0,1,4.48-13.11,36.5,36.5,0,0,0-14.57-3.75c3.27,5.15,2.3,10.18,1.46,14.93-0.82,4.6-1.66,9.34.42,14.85C222,274.88,231.6,280.09,242.55,281.28Z" transform="translate(-0.74 -29.6)" fill="#231f20"/><path d="M227.51,235.27a33.07,33.07,0,0,1,4.08,1.74,46,46,0,0,1,6.24-7.14,25.14,25.14,0,0,0-8.53-3.65C230.62,230.84,227.51,234.75,227.51,235.27Z" transform="translate(-0.74 -29.6)" fill="#231f20"/><path d="M243.15,267.46c0,3.55,6.85,8.69,6.85,8.69s6.85-5.14,6.85-8.69A6.86,6.86,0,0,0,243.15,267.46Z" transform="translate(-0.74 -29.6)" fill="#fff"/><path d="M250,261.1c-4.65,0-8.43-3.36-8.43-7.49V234.76h3.27v18.85c0,2.44,2.31,4.42,5.16,4.42s5.16-2,5.16-4.42V234.76h3.27v18.85c0,4.13-3.78,7.49-8.43,7.49h0Z" transform="translate(-0.74 -29.6)" fill="#fff"/><path d="M65.48,433.18v36.29a1368,1368,0,0,1,369,0V433.18A1369.9,1369.9,0,0,0,65.48,433.18Z" transform="translate(-0.74 -29.6)" fill="#fff"/><path d="M396,412v9.71q23.65,2.39,46.68,5.57v22.22c20.43,2.5,35.23.65,56.54-4.13L481.66,430l17.6-20.27C458.51,416,438.15,416,396,412Z" transform="translate(-0.74 -29.6)" fill="#fff"/><path d="M104,412v9.71q-23.65,2.39-46.68,5.57v22.22C36.86,452,22,450.13.74,445.35L18.34,430,0.75,409.65C41.49,416,61.85,416,104,412Z" transform="translate(-0.74 -29.6)" fill="#fff"/><path d="M423.6,444.15c-1,.1-1.17.62-1.27,1.67l-1,8.57c-0.15,1.08-.17,1.69.83,2l-0.08.65-5.08-.62,0.08-.65c0.91-.1,1-0.14,1.17-1.78,0.31-2.54.79-6.73,1.1-8.28h-0.21c-0.32.76-.79,1.6-4.55,8.88l-1.74-.21c-1.92-9.14-1.9-9-2-9.8h-0.18c-0.13,2.06-.36,3.8-0.92,8.41-0.16,1-.14,1.61.84,1.92l-0.08.65-3.75-.46,0.08-.65c1.1-.13,1.15-0.59,1.29-1.7l1-8.57c0.16-1,.15-1.57-0.84-1.91l0.08-.65,4.93,0.6,1.75,8.47,4-7.77,4.65,0.57Z" transform="translate(-0.74 -29.6)" fill="#231f20"/><path d="M400.6,450.24l-4.24-.46a8.39,8.39,0,0,0-.92,2.44,1,1,0,0,0,.92,1.16l-0.07.65-4.24-.46,0.07-.66c0.88,0,1.46-.94,1.85-1.73l5.35-10.57L402,440.9,404,452.37c0.15,1,.3,1.74,1.21,2l-0.07.65-5.48-.6,0.07-.65c1,0.07,1.19-.57,1.11-1.51C400.87,452,400.64,450.5,400.6,450.24Zm-3.73-1.58,3.57,0.39-1-5.76Z" transform="translate(-0.74 -29.6)" fill="#231f20"/><path d="M389.79,450.8c-0.19.94-.1,1.75,0.83,1.94l-0.06.66-5.19-.51,0.06-.66c1,0,1.22-.74,1.23-1.73l0.38-3.88q0.17-1.76.35-2.66h0L382,450.05c-0.17.93,0,1.75,0.89,2l-0.06.65-5.22-.51,0.06-.65c0.93,0,1.22-.79,1.24-1.73l0.84-8.56c0.2-1,.11-1.72-0.84-1.95l0.06-.65,5.22,0.51-0.06.66c-1,.06-1.24.8-1.26,1.75-0.39,4-.49,5.32-0.69,6.32,0.09,0,5.35-6,5.41-6.11a1.28,1.28,0,0,0-.9-1.72l0.06-.66,5.19,0.51-0.06.66c-1,0-1.22.8-1.24,1.75Zm-0.43-14.9c-0.15,3.16-7.67,2.62-7.13-.7l0.06-.61,2,0.2c-0.1,1-.07,2.13,1.31,2.16s1.64-.57,1.76-1.86l2,0.2v0.61Z" transform="translate(-0.74 -29.6)" fill="#231f20"/><path d="M371.36,447.33l-4.27-.35c-0.19.43-.56,1.22-0.71,1.67-0.41,1.23,0,1.87.78,1.91l-0.06.66-4.25-.37,0.06-.66c0.88,0,1.44-1,1.81-1.75l5.11-10.69,2.66,0.23,2.31,11.43c0.17,0.94.34,1.73,1.26,2L376,452l-5.49-.48,0.06-.65a0.94,0.94,0,0,0,1.09-.84A12.11,12.11,0,0,0,371.36,447.33Zm-3.77-1.5,3.58,0.31-1.1-5.74Z" transform="translate(-0.74 -29.6)" fill="#231f20"/><path d="M361.71,444.86c1.21,1.6,1,6.15-5,5.46l-6.13-.47,0-.66c1-.17,1.13-0.52,1.21-1.76l0.66-8.58c0-1.12.14-1.59-1-1.94l0-.66,6.52,0.5c2.46,0.16,4.77.91,4.52,3.36q-0.17,2.25-3,3.16A8.45,8.45,0,0,1,361.71,444.86ZM354.84,449a8.2,8.2,0,0,0,2.92,0c1.73-.51,2.25-4.17.09-4.94a10,10,0,0,0-2.61-.35Zm3.4-6.51c1.59-.64,1.93-3.59.26-4.29a7.18,7.18,0,0,0-2.81-.37l-0.37,4.74A6.61,6.61,0,0,0,358.24,442.47Z" transform="translate(-0.74 -29.6)" fill="#231f20"/><path d="M349.58,436.46l-0.2,2.89-1.35-.09c-0.28-3.13-3.48-2.79-4.45-1a11.9,11.9,0,0,0-.65,8.65c0.58,1.64,3.67,2.84,4.61-.62l1.36,0.09-0.2,3c-2.45.39-5.11,0.54-7.22-.76-3.26-2.19-3-10.11,1.18-12.28A8.86,8.86,0,0,1,349.58,436.46Z" transform="translate(-0.74 -29.6)" fill="#231f20"/><path d="M327,445.86c-0.1,1-.07,1.67.95,1.91v0.66l-5.21-.27V447.5c1-.14,1.13-0.64,1.15-1.79l0.21-4-4.51-.23-0.21,4c0,1.08-.11,1.59,1,1.9V448l-5.23-.27v-0.66c1.05-.21,1.08-0.56,1.16-1.78l0.44-8.59c0-1.1.13-1.59-1-1.92v-0.66l5.23,0.27v0.66c-1,.16-1.16.73-1.17,1.81l-0.17,3.33,4.5,0.23,0.17-3.33c0.1-1.09.05-1.65-1-1.91v-0.66l5.2,0.27v0.66c-1.26.22-1,.81-1.15,1.81Z" transform="translate(-0.74 -29.6)" fill="#231f20"/><path d="M308.67,443.27l-4.26-.18a8.08,8.08,0,0,0-.7,2.44,1,1,0,0,0,1,1.09v0.66l-4.26-.18v-0.66c0.89,0,1.4-1,1.72-1.88l4.61-10.91,2.66,0.11,2.83,11.31c0.22,0.93.42,1.72,1.35,1.91v0.66l-5.51-.23v-0.66a1,1,0,0,0,1.06-.9A5.73,5.73,0,0,0,308.67,443.27ZM304.83,442l3.59,0.15-1.33-5.73Z" transform="translate(-0.74 -29.6)" fill="#231f20"/><path d="M299.65,443.24c0,3-2.48,3.83-5.44,3.69l-6.15-.19v-0.66a1.07,1.07,0,0,0,1.07-1s0,0.34.33-9.39c0-1.08.12-1.59-1-1.89v-0.66l6.54,0.21c2.5,0,4.83.71,4.67,3.19q-0.07,2.26-2.82,3.3S299.76,440.7,299.65,443.24Zm-7.38,2.46c1.19,0,4.38.74,4.32-2.49,0.17-3-2.33-2.76-4.12-2.76Zm4.34-8.91c0.19-2.43-2.26-2.3-4-2.3l-0.15,4.75C294.07,439.3,296.66,439.69,296.61,436.79Z" transform="translate(-0.74 -29.6)" fill="#231f20"/><path d="M281.48,442.39l-4.26-.09a8.47,8.47,0,0,0-.71,2.5,1,1,0,0,0,1,1.07v0.66l-4.26-.09v-0.66c0.89-.07,1.37-1.08,1.68-1.92l4.4-11,2.66,0.06,3.1,11.26c0.23,0.94.46,1.71,1.39,1.89v0.66l-5.51-.12V446a0.93,0.93,0,0,0,1-.91A11,11,0,0,0,281.48,442.39Zm-3.86-1.25,3.59,0.08-1.48-5.65Z" transform="translate(-0.74 -29.6)" fill="#231f20"/><path d="M264.47,446.33v-0.66c0.92-.11,1.15-0.89,1.09-1.84l0.12-8.59c0.09-.95-0.1-1.72-1-1.87v-0.66l9.65,0.13,0,3.78h-1.37c-0.28-1.33-.84-2.67-2.16-2.6h-1.93l-0.13,9.92c-0.1,1,.18,1.82,1.19,1.86v0.66C269.84,446.37,264.56,446.33,264.47,446.33Z" transform="translate(-0.74 -29.6)" fill="#231f20"/><path d="M257.82,442.06h-4.26a8.22,8.22,0,0,0-.65,2.52,1,1,0,0,0,1,1v0.66h-4.26v-0.66c0.89-.08,1.36-1.11,1.65-2l4.21-11.07h2.66l3.24,11.2c0.25,0.93.47,1.71,1.42,1.87v0.66h-5.51v-0.66a1,1,0,0,0,1-.94A13.62,13.62,0,0,0,257.82,442.06Zm-3.88-1.19h3.59L256,435.24Z" transform="translate(-0.74 -29.6)" fill="#231f20"/><path d="M242.09,432.66v0.66a0.75,0.75,0,0,0-.78,1.1,29.24,29.24,0,0,0,1.71,3c1.22-1.81,1.87-2.51,1.86-3.37a0.78,0.78,0,0,0-.83-0.74v-0.66h4.12v0.67a2.23,2.23,0,0,0-1.15.84c-0.52.63-1.72,2.4-3.22,4.57,2.06,3.36,3.44,5.72,4,6.34a1.36,1.36,0,0,0,.79.54v0.66H243V445.6c0.85,0,1-.61.74-1.32-0.21-.49-1.64-2.76-1.92-3.22a25.47,25.47,0,0,0-2.11,3.39,0.88,0.88,0,0,0,.83,1.18v0.66h-4.13v-0.66a2.45,2.45,0,0,0,1.19-.91c0.48-.57,1.45-2,3.48-5-1.87-3.07-3.07-5.16-3.75-6a1.22,1.22,0,0,0-.72-0.47v-0.66h5.47Z" transform="translate(-0.74 -29.6)" fill="#231f20"/><path d="M224,446.49v-0.66c0.92-.14,1.13-0.93,1.06-1.85l-0.12-8.6c0.06-1-.15-1.73-1.1-1.85v-0.66l10.51-.15v3.38H233c-0.46-1.82-1.35-2.22-2.23-2.14H228l0.07,4.59q1.35-.15,2.3-0.16c2.62-.23,5.23,1.11,5,3.9q0.06,4-5.25,4Zm4.15-1.26q2.6,0.13,3.39-.57c1.38-1.39,1.11-4.62-1.31-4.93a16.48,16.48,0,0,0-2.16.08Z" transform="translate(-0.74 -29.6)" fill="#231f20"/><path d="M206.78,446.22c-0.72.81-1.91,1.34-4.15,0.77l-0.08-2.79H204q0.09,1.27,1,1.25,1.08,0,1.91-1.88c-3.84-7.7-3.92-8-4.6-9a1,1,0,0,0-.81-0.42V433.5l5.32-.16V434a0.74,0.74,0,0,0-.75.78c0.18,0.91.28,0.93,2.41,5.48,1.68-4.35,1.87-4.58,1.91-5.58a0.71,0.71,0,0,0-.8-0.76v-0.66l4-.12v0.66a1.72,1.72,0,0,0-1,.71C210.7,437.17,208.91,443.58,206.78,446.22Z" transform="translate(-0.74 -29.6)" fill="#231f20"/><path d="M191.71,447.47v-0.66a1.09,1.09,0,0,0,1.14-1.09c0-1.11.06,0.49-.43-10.74h-0.81c-1.46,0-1.79,1-2.06,2.46l-1.37,0L188.09,434l11.74-.47L200,437l-1.37,0c-0.31-1-.63-2.12-1.67-2.24-0.14,0-1.17,0-1.39,0,0,0.56.39,10.19,0.46,10.75a1.11,1.11,0,0,0,1.23,1v0.66Z" transform="translate(-0.74 -29.6)" fill="#231f20"/><path d="M177.44,434.8l0.16,2.89-1.35.07a2.25,2.25,0,0,0-2.23-2.08c-2.61.1-3.14,3.67-2.86,6.17,0,2.37.88,5.58,3.24,5.44,1.49,0,2.05-1,2.26-2.48l1.36-.08,0.17,3c-2.33.69-5.09,1.14-7.3,0.15s-2.84-3.58-2.89-5.94,0.52-5,2.52-6.39A8.92,8.92,0,0,1,177.44,434.8Z" transform="translate(-0.74 -29.6)" fill="#231f20"/><path d="M162.32,444.78l-4.25.27c-0.13.48-.37,1.31-0.45,1.79-0.17,1.39.44,1.87,1.1,1.8v0.66l-4.25.27v-0.65c0.88-.15,1.28-1.19,1.52-2l3.44-11.34,2.66-.17,4,11c0.32,0.9.62,1.63,1.55,1.72v0.66l-5.5.35v-0.66c1-.11,1.08-0.78.85-1.68A16.14,16.14,0,0,0,162.32,444.78Zm-3.95-.92,3.59-.23-2-5.51Z" transform="translate(-0.74 -29.6)" fill="#231f20"/><path d="M151.74,447.21c0.05,1,.17,1.61,1.19,1.72v0.66l-5.2.39v-0.66c1-.26,1.05-0.73.93-1.92l-0.3-4-4.5.34,0.3,4c0,1.36.44,1.66,1.22,1.77v0.66l-5.23.39V449.9c0.81-.27,1-0.43.95-1.92l-0.64-8.58c0-1.35-.37-1.64-1.2-1.77V437l5.23-.39v0.65c-1,.28-1.07.86-0.94,1.94l0.25,3.32,4.5-.34L148,438.83c-0.05-1-.17-1.61-1.2-1.74v-0.65l5.2-.39v0.66c-1.08.33-.95,0.81-0.95,1.95Z" transform="translate(-0.74 -29.6)" fill="#231f20"/><path d="M119.49,452.38l-0.06-.66c0.92-.22,1-1,0.89-1.95l-0.75-8.56c0-.95-0.28-1.72-1.22-1.75l-0.06-.66,5.19-.46,0.06,0.65c-1,.19-1,1-0.84,1.93l0.87,9.82,3.7-.33-0.87-9.82c0-.95-0.29-1.72-1.24-1.74l-0.06-.66,5.22-.46,0.06,0.66c-0.92.2-1.05,1-.9,1.94l0.87,9.83,3.7-.33-1-9.85c0-.94-0.29-1.71-1.23-1.74l-0.06-.66,5.22-.46,0.06,0.66c-0.91.2-1.05,1-.9,1.93l0.76,8.57c0,1,.27,1.71,1.23,1.75l0.06,0.66Z" transform="translate(-0.74 -29.6)" fill="#231f20"/><path d="M116.23,450.2c0,0.94.29,1.72,1.24,1.73l0.07,0.65-5.19.53-0.07-.66c1-.19,1-1,0.84-1.94-0.37-3.6-.64-6.56-0.64-6.56l-4,7c0,1,.31,1.71,1.26,1.73l0.07,0.65-5.21.53-0.07-.66c0.91-.21,1-1,0.87-1.95l-0.87-8.56c0-1-.3-1.7-1.26-1.74l-0.07-.65,5.21-.53,0.07,0.66c-0.94.25-1,1-.84,2l0.64,6.37,4-7a1.27,1.27,0,0,0-1.21-1.51L111,439.6l5.18-.53,0.07,0.65c-0.93.24-1,1-.82,2Z" transform="translate(-0.74 -29.6)" fill="#231f20"/><path d="M96.68,453.66a1.42,1.42,0,0,0,1,.35l0.07,0.66-5.34.6-0.07-.65a1.07,1.07,0,0,0,.92-1.16c0-.49-1.1-9.73-1.17-10.12a1.1,1.1,0,0,0-1.16-1l-0.07-.66,5.76-.65c4.51-.84,6.43,2.43,5.1,5.46-1,2.14-3.46,2.49-5.83,2.61C96.27,452,96.28,453.17,96.68,453.66ZM95.83,448c1.44-.15,3.74-0.17,3.27-3.24-0.21-2.89-2.11-2.64-3.9-2.35Z" transform="translate(-0.74 -29.6)" fill="#231f20"/><path d="M86.55,456l-0.06-.5c-0.58-1-1.74-3.43-2.33-4.37-0.62-1.23-1.54-1.07-2.54-1.07,0.54,4.12.48,4.48,0.87,5.24a1.29,1.29,0,0,0,.95.4l0.08,0.65-5.2.64-0.08-.65c0.92-.23,1-1,0.81-2L78,445.81c0-1-.33-1.7-1.28-1.72l-0.08-.65,5.2-.64,0.08,0.65c-0.92.27-1,1.05-.82,2L81.53,449a2.34,2.34,0,0,0,1.95-.92c1.25-2,.65-4.32,2.49-5.53a4.69,4.69,0,0,1,3.12-.55l0.3,2.45-1.4.17a0.83,0.83,0,0,0-.86-0.8c-0.85,0-1.23,1.47-1.42,2.3a4.2,4.2,0,0,1-1.48,2.52v0.1c3.07-.14,3.34,2.61,5.52,5.61a1.39,1.39,0,0,0,1.08.44l0.08,0.65Z" transform="translate(-0.74 -29.6)" fill="#231f20"/><path d="M432.84,379.7a7.35,7.35,0,0,1,.54-6.37c1.89-3.74,6.33-4,9.69-1.64,5.23,3,5.23,8.67,1.37,11.66-2.23,1.63-5.11.61-7.47-.8l5-8.29c-2.81-1.64-5.66-2.4-7.24.51a5.51,5.51,0,0,0-.48,4.68Zm6.66,1c2.08,1.12,4.65,1.91,5.76-.16,1.3-2.06-.38-4.41-2.32-5.61Z" transform="translate(-0.74 -29.6)" fill="#fff"/><path d="M441.09,359.84l0.67,0.33c-0.57,1.95,1,2.29,4.85,4.21l2.93-5.92c-3.81-1.88-5.11-2.94-6.32-1.26l-0.67-.33,2.64-5.35,0.67,0.33c-0.38,1.33.44,2.19,1.65,2.66l7.06,3.49c1.14,0.7,2.35.81,3.08-.32l0.64,0.3-2.63,5.32L455,363c0.68-1.92-1.25-2.45-4.26-3.93L447.8,365c3.12,1.54,4.57,2.69,5.71,1l0.67,0.33-2.62,5.3-0.67-.33c0.43-1.27-.42-2.15-1.63-2.62l-7.06-3.49c-1.14-.7-2.31-0.79-3.11.29l-0.67-.33Z" transform="translate(-0.74 -29.6)" fill="#fff"/><path d="M448.75,342.74l0.7,0.27c-0.24,1.34.63,2.08,1.9,2.42l6,2.34-4-8.79a1.85,1.85,0,0,0-2.58.71l-0.7-.27,2.12-5.46,0.7,0.27c-0.26,1.35.6,2.14,1.87,2.52l7.36,2.83c1.19,0.59,2.43.6,3-.63l0.7,0.27-2.12,5.46-0.7-.27c0.32-1.29-.57-2.09-1.85-2.45l-5.93-2.3,4.08,8.8a1.77,1.77,0,0,0,2.43-.76l0.7,0.27-2.12,5.46-0.7-.27c0.32-1.29-.58-2.09-1.85-2.45l-7.34-2.85c-1.19-.59-2.36-0.58-3.06.57l-0.7-.27Z" transform="translate(-0.74 -29.6)" fill="#fff"/><path d="M456.46,327.48s-0.82-2.16-1-3.16c-0.52-3.16,1.6-6.25,4.72-5.26,3.61,1.05,3.26,6.29,2.17,9.87,2.18,0.61,5.23,1.71,6-1.41a3,3,0,0,0-1.56-3.59l0.57-1.93,1.91,0.56c0.61,2.88.81,6.66-1.13,8.87a3,3,0,0,1-1.81.9,7.49,7.49,0,0,1-3-.41l-5.2-1.49c-2.77-.79-3.28-1.07-4.22.55l-0.72-.21,1.19-4Zm4.63,1.1a10.78,10.78,0,0,0,.52-4.7,2.56,2.56,0,0,0-1.87-2.16,2.39,2.39,0,0,0-1.42,0,1.83,1.83,0,0,0-.92.66,3.77,3.77,0,0,0-.54,1.16,3.6,3.6,0,0,0,0,2,3.76,3.76,0,0,0,.86,1.64,3,3,0,0,0,1.42.85Z" transform="translate(-0.74 -29.6)" fill="#fff"/><path d="M460.34,305l-3.16-.66c-2-.45-2.76-0.44-3.39,1.24l-0.74-.15,1.29-6.12,0.74,0.15c0.07,1.4.22,1.84,2.64,2.32l12.87,2.71c2.39,0.5,3.07.61,3.77-1.18l0.79,0.17-0.6,3.52-0.19.91-2.4-.71s2,3.19,1.48,5.6c-0.61,3.81-5,4.53-8.35,3.6C458.09,315.12,457.35,309.25,460.34,305Zm2.69,0.71c-1.31,0-2.63.89-3,2.89-0.7,2.88,2.74,4.49,5.19,4.85q5.88,1.23,6.6-2.2a3.9,3.9,0,0,0-2.71-4.46C464.53,305.82,464.22,305.71,463,305.69Z" transform="translate(-0.74 -29.6)" fill="#fff"/><path d="M461.84,293.12l0.75,0.09c6.48-1.81,6.48-1.39,6.91-5-4.19-.51-5.68-1.22-6.38.86l-0.74-.09,0.71-5.86,0.75,0.09c0,1,.58,1.84,2.86,2l7.41,0.91c1.28,0.26,2.49,0,2.78-1.34l0.74,0.09-0.72,5.93-0.74-.09c0-2.07-2-1.93-5.53-2.36-0.19,1.6-.72,2.84,2.63,4.42,2.83,1.44,3.94,3.36,2.71,6.41l-3-.36,0.17-1.37c1.13,0.1,2-1.76-.64-3.13-2.27-1.36-2.72-2.45-2.72-2.45-0.91,2.47-2.88,2.88-5.39,3.8a3.11,3.11,0,0,0-2.39,2.21l-0.75-.09Z" transform="translate(-0.74 -29.6)" fill="#fff"/><path d="M483.41,282.7c-0.36-1.29-1.38-2-3.93-3.26-11.78-6.08-12.27-6.17-14.69-8.37a5.46,5.46,0,0,1-.84-5.83l3.9,0.16L467.78,267c-2.27.08-3,2.62,1,4.92,13.52-5.51,12.92-5.22,14.39-6a2.59,2.59,0,0,0,1-1.3h0.75l-0.27,6.57h-0.75q-0.11-1.48-1.17-1.52c-1.58.11-1.37,0.13-10.91,3.92l7,3.35c1.5,0.83,4.81,2.06,4.93-.13h0.75l-0.24,5.88h-0.79Z" transform="translate(-0.74 -29.6)" fill="#fff"/><path d="M461.77,233.18l0.75-.08c0.4,1.32,1.53,1.61,2.82,1.35l7.81-.87c1.34,0,2.45-.59,2.46-1.95l0.75-.08,0.74,6.65c0.49,2.71,0,6.17-2.83,6.27q-2.21.25-3.61-2.39s-0.48,3.27-3.37,3.6c-3.26.54-4.37-2.55-4.74-5.84Zm7.51,3.48-5.82.65a19.7,19.7,0,0,0,.16,2c0,5.34,7,4.58,5.89-.47Zm6.35-.71-5.21.58,0.21,1.86c0,4.84,6.35,4.43,5.25-.73Z" transform="translate(-0.74 -29.6)" fill="#fff"/><path d="M453,195.46l0.72-.21c0.61,1.24,1.79,1.33,3,.87l7.58-2.15c1.31-.25,2.29-1,2.07-2.31l0.72-.2,1.64,5.78-0.72.2c-0.49-1.26-1.7-1.41-3-.93l-2.76.78c1.73,4.11,2.75,8.34-1.52,9.55C455.64,208.66,454.63,201.39,453,195.46Zm8.13,2.15-5.72,1.62c0.66,3.14,1.58,6,4.61,4.91,3-.86,2.43-3.67,1.11-6.53h0Zm-4.25,11.51,0.72-.21c0.6,1.23,1.73,1.4,3,.88l7.58-2.15c1.27-.23,2.27-1,2.06-2.32l0.72-.21,1.62,5.69-0.72.21c-0.52-1.19-1.74-1.25-3-.8l-7.58,2.15c-1.32.26-2.26,0.94-2.11,2.28l-0.72.21Z" transform="translate(-0.74 -29.6)" fill="#fff"/><path d="M449.48,186.52l0.7-.28c1.08,1.73,2.37.81,6.39-.79l-2.48-6.13c-4,1.57-5.6,1.82-5.16,3.84l-0.7.28L446,177.9l0.7-.28c0.73,1.17,1.9,1.15,3.08.57l7.32-2.9c1.28-.37,2.18-1.18,1.83-2.48l0.7-.28,2.19,5.51-0.7.28c-1-1.78-2.64-.72-5.78.52L457.8,185c3.2-1.27,5.06-1.58,4.58-3.57l0.7-.28,2.18,5.5-0.7.28c-0.65-1.17-1.87-1.14-3-.56l-7.32,2.9c-1.27.37-2.12,1.16-1.86,2.49l-0.7.28Z" transform="translate(-0.74 -29.6)" fill="#fff"/><path d="M434.63,155.21l0.67-.35c0.82,1.09,2,1,3.12.24l7-3.64c1.19-.49,2-1.4,1.54-2.68l0.67-.35,2.66,5.11-0.66.35c-0.72-1.05-2-.81-3-0.14l-8.83,4.61,2.49,4.77,8.83-4.61c1.21-.5,2-1.35,1.56-2.57l0.67-.35,2.61,5-0.66.35c-0.76-1-2-.84-3-0.16l-8.83,4.61,2.49,4.77,8.83-4.61c1.18-.51,2-1.34,1.62-2.55l0.67-.35,2.66,5.09-0.67.35c-0.74-1.1-2-.92-3.08-0.23l-7,3.64c-1.27.54-2,1.41-1.6,2.67l-0.67.35Z" transform="translate(-0.74 -29.6)" fill="#fff"/><path d="M429.44,147.34l0.63-.41c1.39,1.42,2.13.49,8.48-3.71L429,141.43a2,2,0,0,0-.92,2.55l-0.63.41-3.23-4.88,0.63-.42c0.94,1,2.09.75,3.13-.08l6.57-4.35c1.18-.64,1.88-1.63,1.27-2.83l0.63-.42,3.23,4.88-0.63.42c-0.86-1-2-.74-3.08.09l-5.3,3.51,9.54,1.75a1.78,1.78,0,0,0,.78-2.43l0.63-.42,3.23,4.88-0.62.41c-0.86-1-2.05-.76-3.09.08l-6.57,4.35c-1.18.64-1.83,1.6-1.3,2.83l-0.63.41Z" transform="translate(-0.74 -29.6)" fill="#fff"/><path d="M416.37,128.59c-3.92,3.09-4.86,3.42-3.76,5.36l-0.59.46-3.93-4.88,0.59-.46c1.14,0.86,1.56,1,3.48-.54,9.28-7.33,10.9-8.57,11.53-9.15,1-.84,1-1.51.37-2.63l0.64-.5c2.81,3.21,2.18,2.46,3,3.46l-2.08,1.39s3.65,0.48,5.18,2.43c2.49,2.86.34,6.71-2.59,8.72C422.7,136.77,417.64,133.57,416.37,128.59ZM418.7,127c-1,1.2-.77,2.79.34,4.11,1.71,2.37,5.11.92,7.09-.85q4.71-3.72,2.54-6.48a3.87,3.87,0,0,0-5.12-.89C420,125.77,419.57,126,418.7,127Z" transform="translate(-0.74 -29.6)" fill="#fff"/><path d="M408.38,120l0.54-.51c4.4-9.57,5-8.38,1.34-12.28l-4.6,4.35c-1.28,1-1.93,2.11-1,3.4l-0.55.52-4.44-4.7,0.54-.52c1.29,1,2.41.48,3.46-.79l9.63-9.11c1.33-1,1.92-2.12,1-3.48l0.54-.52,4.44,4.7-0.55.52c-1.82-1.35-2.37-.18-7.54,4.69,1.91,2,2.47,3.38,7.14,1,3.74-1.91,6.61-1.88,8.43,1.92l-2.56,2.42-1-1.1c1.33-1.57-.12-2.59-1.12-2.43-3.49.71-5.33,2.63-7.88,1.95a7.35,7.35,0,0,1-.2,5.53c-1.87,4.48-2.87,6.15-1.46,7.83l-0.54.52Z" transform="translate(-0.74 -29.6)" fill="#fff"/><path d="M381,94.65l0.46-.6c1.75,0.83,2.45-.62,4.71-3.56-3.38-2.6-3.28-2.06-8.16.86l-0.46.6L374,89.23l0.46-.59c1.4,0.9,2.56.17,4.44-.66a7.4,7.4,0,0,1,3.54-.57q-2.66-3-.71-5.59c2.81-4.08,8.28,1.26,12.79,4.72l-0.46.59c-1.13-.68-2.16,0-2.87,1.09l-4.55,5.91c-1.5,1.65-1.3,2.62-.57,3.42l-0.46.6ZM390.38,85c-2.28-2-4.57-3.8-6.53-1.35s0.59,4.08,3,5.92Z" transform="translate(-0.74 -29.6)" fill="#fff"/><path d="M366.59,84.41l0.4-.63c1.25,0.5,2.16-.18,2.77-1.37L373.25,77l-9.45,2.23a1.84,1.84,0,0,0,.19,2.66l-0.4.63-4.93-3.16,0.4-.63c1.27,0.51,2.2-.17,2.82-1.34l4.21-6.65c0.81-1.06,1.06-2.25,0-3.1l0.4-.63,4.93,3.15-0.4.63c-1.2-.57-2.17.15-2.78,1.33l-3.43,5.36,9.43-2.26a1.77,1.77,0,0,0-.27-2.54L374.4,72l4.93,3.15-0.4.63c-1.19-.58-2.18.13-2.79,1.32l-4.24,6.64c-0.82,1.05-1,2.19,0,3.11l-0.41.63Z" transform="translate(-0.74 -29.6)" fill="#fff"/><path d="M350.18,74.73l0.35-.67c1.34,0.45,2.19-.35,2.67-1.57l1.65-3.17L349,66.27l-1.65,3.17c-0.72,1.12-.86,2.28.25,3.12l-0.35.67-5.29-2.76,0.35-.67c1.32,0.41,2.19-.37,2.7-1.58l3.64-7c0.72-1.13.86-2.34-.25-3.09l0.35-.67L354,60.2l-0.35.67c-1.24-.49-2.15.3-2.66,1.54L349.63,65l5.86,3.05,1.36-2.61c0.73-1.1.87-2.3-.23-3.08l0.35-.67,5.25,2.73-0.35.67c-1.26-.46-2.15.36-2.66,1.56l-3.64,7c-0.72,1.12-.84,2.28.22,3.1l-0.35.67Z" transform="translate(-0.74 -29.6)" fill="#fff"/><path d="M336,65.45c-2,1.51-9.9,1-8-4.61,1.45-3.48,6.63-2.54,10.06-1.07,3-7.19-2.71-7.31-4.49-4.91l-1.85-.78,0.77-1.84c3.73-.35,9.32.42,9.38,4-0.1,2.39-2.56,6.92-3.42,9.35-0.54,1.38-.33,2,0.77,2.76l-0.29.69-3.87-1.62Zm1.62-4.52c-2.4-1.11-6-1.83-7,.62-1.59,3.24,4.61,4.91,6.1,1.43Z" transform="translate(-0.74 -29.6)" fill="#fff"/><path d="M318.09,60.93l0.23-.71c1.38,0.2,2.09-.74,2.37-2l1.11-3.39-6.28-2-1.11,3.39c-0.52,1.22-.46,2.39.73,3l-0.23.71-5.67-1.85,0.23-.71c1.36,0.19,2.1-.72,2.4-2l2.45-7.49c0.52-1.21.47-2.43-.73-3l0.23-.71L319.47,46l-0.23.71c-1.33-.26-2.09.73-2.37,2L316,51.46l6.28,2,0.92-2.8c0.55-1.22.48-2.42-.74-3l0.23-.71,5.62,1.84-0.23.71c-1.33-.25-2.08.72-2.38,2L323.21,59c-0.53,1.22-.46,2.39.73,3l-0.23.71Z" transform="translate(-0.74 -29.6)" fill="#fff"/><path d="M295,54.1l0.73-3,1.62,0.4c0.38,4.21,6,4.62,6.84,1.18,1-3.1-2.22-3.57-5.24-4.31L299.35,47c3,0.72,5.86,1.73,6.41-1.3,0.81-3.32-4.65-4.63-6.6-1.47l-1.43-.35L298.45,41c12.79-1,12.17,7.44,6.09,7.83-0.05.47,3.32,1.32,2.48,4.55C305.81,58.27,298.58,56,295,54.1Z" transform="translate(-0.74 -29.6)" fill="#fff"/><path d="M284.83,53c-4.21-.41-6.2-4.4-5.24-8.39,0.57-4.35,3.65-7.31,7.95-6.52,4.31,0.4,6.24,4.44,5.32,8.32C292.24,51,289,53.72,284.83,53ZM290,46.41c1.74-9-6.57-9.58-7.5-1.72C280.82,53.07,288.65,54.89,290,46.41Z" transform="translate(-0.74 -29.6)" fill="#fff"/><path d="M276.47,30.76L276.09,35l-1.51-.13c-0.36-2.25-1.48-3.78-3.75-3.9-7.38-.65-8.78,18.23-1.9,18.61,2.56,0.31,3.82-1,4.73-3.4l1.51,0.12-0.36,4.37c-10.18,1.81-14-2.06-13.31-10.86C262,31.77,267.26,27.35,276.47,30.76Z" transform="translate(-0.74 -29.6)" fill="#fff"/><path d="M236,50.31l-0.05-.75c2-.57,1.41-2.42,1.15-5.77-4.22.31-3.82,0.79-5.51,6.08l0.05,0.75-4.45.3-0.05-.75a3.06,3.06,0,0,0,2.33-2.25c1.36-3.46,2.83-3.94,2.83-3.94q-4-.52-4.23-3.72c-0.42-3.41,3.23-4.29,6.68-4.53l6-.41,0.05,0.75c-1.29.23-1.63,1.42-1.43,2.73l0.51,7.45c0,2.22.76,2.82,1.84,2.94l0.05,0.75Zm0.64-13.48c-3,0-6,.21-5.76,3.34S234,42.83,237,42.61Z" transform="translate(-0.74 -29.6)" fill="#fff"/><path d="M218.42,52.17l-0.12-.74c1.29-.46,1.5-1.59,1.13-2.89l-1-6.39-5.6,7.93a1.84,1.84,0,0,0,1.91,1.87l0.12,0.74-5.78.91L209,52.86c1.3-.47,1.53-1.63,1.19-2.91l-1.22-7.78c-0.09-1.33-.71-2.38-2-2.33l-0.12-.74,5.78-.91L212.74,39c-1.28.37-1.51,1.54-1.16,2.84l1,6.28,5.51-7.93a1.78,1.78,0,0,0-1.88-1.72l-0.12-.74,5.78-.9L222,37.55c-1.31.38-1.54,1.63-1.21,2.89L222,48.22c0.09,1.34.69,2.34,2,2.37l0.12,0.74Z" transform="translate(-0.74 -29.6)" fill="#fff"/><path d="M199.84,55.76L199.65,55c1.24-.53,1.35-1.65.92-2.93-1.86-7.41-1.86-7.33-2.08-8.67-0.25,0-2,10.41-2,10.66l-1.43.37c-0.14-.19-6.48-8.76-6.71-8.76,0.53,1.53.67,2.22,2.35,8.82,0.23,1.32.88,2.28,2.23,2.17l0.18,0.8-4.89,1.25L188,58c1.24-.53,1.35-1.67.92-2.94l-2-7.63c-0.18-1.33-.88-2.29-2.21-2.14l-0.19-.73,4.92-1.26,6,8.18,1.69-10.16,4.65-1.19L202,40.84c-1.26.45-1.37,1.67-.95,2.9l2,7.63c0.22,1.33.93,2.3,2.26,2.16l0.19,0.73Z" transform="translate(-0.74 -29.6)" fill="#fff"/><path d="M184.28,57.33c-3.07,6.89-11,6.73-13-.35-2.11-5.64,1.5-10.06,6.43-9.87,2.77,0.2,4.33,2.83,5.24,5.44l-9.11,3.19c1.58,6.32,7.39,5.37,9.25.93Zm-4.48-5c-0.84-2.19-2.31-4.46-4.5-3.62-2.41.73-2.54,3.7-1.86,5.77Z" transform="translate(-0.74 -29.6)" fill="#fff"/><path d="M171.81,69.84c-1.75-2.87-2.95-4.34-5.05-3.19l-6,2.63c-2.12.83-1.63,3.79-.85,5.84l-1.29.57-2.53-5.79,1.64-.72A20,20,0,0,0,156.62,58q-0.7-1.59-2-1.21l-0.3-.69,10.4-4.56,0.3,0.69c-1.24.64-1.19,1.93-.56,3.09l4,9.12,2.15-.94,2.48,5.73ZM161.2,54.45l-3.37,1.48q2.55,7.43,1.69,12.46l6.57-2.87Z" transform="translate(-0.74 -29.6)" fill="#fff"/><path d="M149.46,72.43c0.19,2-5.33,8.51-8.56,3.31-1.8-3.3,2.15-6.75,5.46-8.51-1.08-2-2.49-4.84-5.18-3.21a3,3,0,0,0-1.45,3.65l-1.76,1-1-1.75c2.26-3.43,6.32-7,9.06-4.85,1.78,1.55,2.83,4.58,5.16,8.51,0.76,1.33,1.27,1.51,2.58,1.16l0.32,0.65-3.69,2Zm-2.52-4.09c-1.67.82-5.36,3.24-3.91,5.8,1.66,3.16,6.68-.59,5-3.95Z" transform="translate(-0.74 -29.6)" fill="#fff"/><path d="M136.27,82.56l-0.41-.63c-4.17-2.86-5.45-4.19-7.34-2.65l-0.92.6,1.71,2.63C130,84,131,84.74,132.39,84.18l0.41,0.63L127.86,88l-0.41-.63c0.71-.66,1-1.62-0.36-3.42L123,77.73c-0.63-1.15-1.61-1.9-2.82-1.27l-0.41-.63,5-3.26,0.41,0.63c-1,.86-0.81,2,0,3.09L126.95,79l0.93-.6c2.22-1.33.16-4.26,0.61-7.49a4.68,4.68,0,0,1,3.29-2.93l1.63,2.5-1.15.75c-0.7-1-2.64-.33-2,2.5,0.54,3.37-.3,3.23-0.18,3.67,3.39-1.24,5.59,1.79,8.14,2.32a2.81,2.81,0,0,0,1.52-.29l0.41,0.6Z" transform="translate(-0.74 -29.6)" fill="#fff"/><path d="M119.73,94.1l-0.47-.59c0.78-.88,1.18-1.67.41-2.56a17.31,17.31,0,0,0-3.58-2.83l-5.61,4.42a14.61,14.61,0,0,0,1.73,4.08,1.81,1.81,0,0,0,2.67.33l0.47,0.59-5.14,4-0.46-.59c1-1.11.49-3,0-4.4l-5.47-17.23,1.9-1.5c16,11.07,15.1,10.52,16.31,11.16a2.39,2.39,0,0,0,2.32.09l0.47,0.59ZM110,91.24l5-4-8.4-6Z" transform="translate(-0.74 -29.6)" fill="#fff"/><path d="M93.84,117.62l-0.55-.51c1-1.72-.5-2.58-3.12-5-1.4,1.51-2.58,2.81-1.54,4.74l1.68,3.5,0.55,0.51-3,3.27-0.55-.51c1.05-1.37.34-2.7-.25-4.48a7.28,7.28,0,0,1-.24-3.57q-3.28,2.37-5.63.19c-3.8-3.17,2-8.08,5.9-12.33l0.55,0.51c-0.78,1.06-.21,2.15.83,3l5.42,5.1c1.5,1.64,2.5,1.53,3.36.88l0.55,0.51Zm-8.75-10.27c-2.17,2.06-4.22,4.25-1.92,6.38s4.07-.23,6.16-2.48Z" transform="translate(-0.74 -29.6)" fill="#fff"/><path d="M81.84,128.06c1.06,1.79-1.6,9.79-6.56,6.41-3-2.31-.7-7,1.65-10-1.74-1.39-4.18-3.48-6-.89a3,3,0,0,0,.1,3.9l-1.24,1.58-1.56-1.23c0.52-3.74,2.9-8.87,6.36-8,1.55,0.5,1.78.81,8.1,5.8,1.25,0.93,1.81.85,2.86,0l0.57,0.49-2.6,3.3Zm-3.93-2.76c-1.72,2-3.42,5.27-1.3,6.87,2.68,2.38,5.94-3.1,3-5.54Z" transform="translate(-0.74 -29.6)" fill="#fff"/><path d="M72.71,144.1l-0.62-.42c0.55-1.28-.15-2.21-1.31-2.82l-3-2-3.66,5.5,3,2c1,0.83,2.18,1.09,3.13.08l0.63,0.41-3.3,5-0.63-.42c0.54-1.27-.14-2.21-1.29-2.84l-6.57-4.4c-1-.83-2.23-1.1-3.1-0.07l-0.62-.42,3.28-4.94,0.63,0.42c-0.59,1.19.1,2.17,1.28,2.8L63,143.61l3.66-5.5-2.45-1.63c-1-.85-2.19-1.1-3.08-0.09L60.51,136l3.27-4.93,0.63,0.42c-0.6,1.21.13,2.18,1.27,2.81l6.56,4.36c1,0.84,2.18,1.08,3.11.11L76,139.17Z" transform="translate(-0.74 -29.6)" fill="#fff"/><path d="M59.61,166l-0.66-.36c0.47-1.3-.26-2.18-1.48-2.73l-6.88-3.81c-1.09-.75-2.31-0.94-3.11.17L46.79,159,50,153.12c1.14-2.43,3.49-5,5.9-3.48q1.94,1.08,1.57,4s2.27-2.43,4.85-1c3,1.42,2.15,4.57.53,7.5ZM49.9,155.76l4.58,2.54c1.35-2.42,2.89-4.93.32-6.14C52.49,150.61,51.1,153.4,49.9,155.76Zm5.59,3.09,5.12,2.84c1.61-2.46,3.08-5.31.3-6.61C58.29,153.38,57,156.24,55.49,158.85Z" transform="translate(-0.74 -29.6)" fill="#fff"/><path d="M55.5,175.33c-1.5,4-5.88,4.84-9.48,2.87-3.92-1.65-6.2-5.32-4.25-9.38,1.49-4,5.88-4.94,9.48-3C55.85,167.76,57.22,171.67,55.5,175.33Zm-5-6.67c-8.32-4.06-11,3.87-3.59,6.77C54.3,179.06,58.52,172.56,50.52,168.66Z" transform="translate(-0.74 -29.6)" fill="#fff"/><path d="M41.09,186.49A26.52,26.52,0,0,0,38.82,183a1.06,1.06,0,0,0-1.92.19L36.2,183l1.73-4.7,0.7,0.26a3.45,3.45,0,0,0,.21,1.34c0.4,1,.43,1,3.56,6.25L48,184.47a5.94,5.94,0,0,0,3-1.59l0.71,0.26-2.13,5.78-0.71-.26c0.36-1.48-.63-1.9-1.83-1.49l-3.67,1c1.5,2.39,2.18,3.92,3,4.22a1,1,0,0,0,1.36-.73l0.71,0.26-1.77,4.8-0.7-.29A6.64,6.64,0,0,0,44.77,193l-2.68-4.4c-5.47,1.56-5.95,1.66-7,2.07a3.06,3.06,0,0,0-1.36,1l-0.69-.26,2.07-5.64,0.7,0.26c-0.23,1.16.24,1.64,1.19,1.55C37.5,187.49,40.65,186.61,41.09,186.49Z" transform="translate(-0.74 -29.6)" fill="#fff"/><path d="M47.71,209c1.84,2.06,1.69,4,.54,6.3l-2.92-.81,0.37-1.31c2.32-.11,2.29-2.51-1.78-5.62-13.46,1.1-12.95,1-14,1.22a1.87,1.87,0,0,0-1.39,1.1l-0.72-.2,1.67-6,0.72,0.2c-0.12.93,0,1.68,0.87,1.9,1.27,0.34,2.58.14,10.1-.39-6.51-5.11-7.09-5.69-8.15-6a1.58,1.58,0,0,0-1.91,1.14l-0.72-.2L32,194.82,32.69,195a2,2,0,0,0,.71,1.83C35.64,199.12,45.22,206.21,47.71,209Z" transform="translate(-0.74 -29.6)" fill="#fff"/><path d="M46.37,218.9c-2.49-.28-5.69-0.24-6,2.2l-1.64,9c-0.52,2.35,2.51,3.6,4.87,4.12l-0.28,1.54-6.8-1.24L36.79,233a24,24,0,0,0-7.12-5.37,29.58,29.58,0,0,0-8.33-3.08c-1.1-.32-2.08,0-2.28,1.11l-0.74-.13,2.24-12.35,0.74,0.13c0,1.65,1.28,2.24,2.72,2.33l15.41,2.8L39.87,216l6.8,1.23ZM21,218.13l-0.77,4.24q11.41,3,16.92,8.47l1.72-9.47Z" transform="translate(-0.74 -29.6)" fill="#fff"/><path d="M36.24,258.15H35.49c-0.18-1-.85-1.8-3-1.63l-2.62-.06c0,1.44-.13,2.21.45,3.32s1.19,1.06,5.11,2.7h0.75L36.09,267H35.34c-0.11-1.69-1.51-2.26-3.25-3.21a6.44,6.44,0,0,1-2.5-2.51c-0.6,5-8.67,6.51-8-3.18l0.13-6h0.75c0.12,1.3,1.27,1.74,2.58,1.66l7.46,0.16c1.62,0.16,2.8-.11,3.1-1.58h0.75ZM22.87,256.3c-0.18,2.49-.56,6,2.81,6,3.14,0.18,3-2.78,3-5.91Z" transform="translate(-0.74 -29.6)" fill="#fff"/><path d="M34.2,273.89c4.62,4.21,2.79,9.19-.6,9.18-3.76.23-5.2-4.81-5.39-8.55-2.2.13-5.45,0.16-5.11,3.3a3,3,0,0,0,2.69,2.88l0.12,2-2,.12C20.76,277.69,20.09,272,26.37,272c6.39-.37,4.79-0.27,6.92-0.42,1.54-.12,1.92-0.55,2.16-1.89H36.2l0.25,4.19Zm-4.77.54c0,2.6.92,6.21,3.59,6,3.6,0,2.34-6.26-1.43-6.13Z" transform="translate(-0.74 -29.6)" fill="#fff"/><path d="M37.77,290.15l-0.75.1-3.75,2.21c-2.36.86-1.79,3.16-1.62,4.4l3.11-.43c1.64,0,2.72-.54,2.82-2.08l0.74-.1,0.81,5.84-0.74.1c-0.28-.92-1-1.63-3.26-1.19l-7.39,1c-1.31.08-2.41,0.64-2.35,2l-0.74.1-0.82-5.92,0.74-.1c0.35,1.27,1.51,1.6,2.81,1.29l3.14-.44c-0.22-1.51-.12-2.82-3.66-3.46-3.16-.66-4.66-2.23-4.26-5.46l3-.41L25.79,289c-1.17.2-1.45,2.25,1.41,2.88,2.59,0.74,3.27,1.7,3.27,1.7A4.85,4.85,0,0,1,32.6,290c2.54-1.79,3.86-2.39,3.82-4.22l0.74-.11Z" transform="translate(-0.74 -29.6)" fill="#fff"/><path d="M25.83,306.58L29,305.9l0.41,1.9c-1.47.72-2.33,1.71-2,3.27,0.56,2.71,4.18,2.94,6.88,2.28,3-.63,5.69-2,4.88-5a5.21,5.21,0,0,0-2.57-3.4l0.8-1.07c6,3.37,5.16,11.06-2.26,12.17C29.65,317.36,25.16,314,25.83,306.58Z" transform="translate(-0.74 -29.6)" fill="#fff"/><path d="M46.78,330.72l-0.72.21c-0.62-1.22-1.79-1.32-3-.84l-7.54,2.23c-1.32.25-2.29,1-2.06,2.33l-0.72.21-1.9-6.42c-1-2.56-1.11-6.07,1.69-6.67,2.81-.83,3.53,1.8,4.15,1.71q-0.1-3.33,2.54-4.11c3.12-1.11,4.76,1.74,5.69,4.92Zm-14.13-.3,5-1.49-0.53-1.79c-0.32-1.7-1.66-3.45-3.62-2.73-2,.39-2.16,2.57-1.44,4.36Zm6.13-1.81L44.39,327q-0.17-.78-0.5-1.93c-0.36-1.94-1.88-3.71-4-2.94-2,.47-2.44,2.56-1.7,4.39Z" transform="translate(-0.74 -29.6)" fill="#fff"/><path d="M45.42,334.75c2.22,0.9,3.92,2.13,4.75,4.37,1.76,3.8-.78,7.43-4.73,8.61-4,1.62-8.16.35-9.54-3.5-1.63-4,.81-6.5,4.81-8l3.42,9a10.3,10.3,0,0,0,3-1.56,3.66,3.66,0,0,0,1.13-4.43,5.29,5.29,0,0,0-3.4-3.23Zm-4.9,4.61c-2.25.92-4.51,2.45-3.43,4.62,0.84,2.39,3.82,2.35,5.77,1.65Z" transform="translate(-0.74 -29.6)" fill="#fff"/><path d="M55.85,353.42l-0.68.32a2.24,2.24,0,0,0-1.17-.83c-1,0-.86,0-7.76,3.28l9.2,3.13a2.57,2.57,0,0,0,1.18-.93A2.36,2.36,0,0,0,56.7,357l0.68-.32,2.5,5.29-0.68.32a2.25,2.25,0,0,0-1.27-.87c-1,0-.67-0.06-9,3.87-1.26.47-2.09,1.36-1.67,2.62l-0.68.32-2.53-5.28,0.68-.32c0.72,1.12,1.93,1,3.07.35l5.75-2.72-9.19-3.09a1.77,1.77,0,0,0-1.12,2.29l-0.68.32-2.51-5.29,0.68-.32a2,2,0,0,0,1.18.87c1.33,0,9.77-4,10.61-5a2.21,2.21,0,0,0,.13-1.5l0.68-.32Z" transform="translate(-0.74 -29.6)" fill="#fff"/><path d="M64,369.27l-0.64.38c-3.7,4.93-5.64,6.39-5.54,8.41,0.13,1,.45,1.4,1.61,3.26,6.45-3.84,6.5-3.71,7.26-4.71a2.45,2.45,0,0,0-.1-1.63l0.64-.38,3.31,5.56-0.64.38a2.85,2.85,0,0,0-1.3-.89c-1.16.11-14.55,7.78-15.54,9.28a2.94,2.94,0,0,0,.16,1.55l-0.65.38-3.31-5.56,0.65-.38a2.8,2.8,0,0,0,1.3.86c1.15-.13,1-0.15,7-3.8-1.07-1.8-1.36-2.57-2.58-2.88-3.79-.28-4.78,1.14-8.69.72a5,5,0,0,1-3.32-4l3-1.8,0.78,1.3q-1.21.93-.62,1.92c1,1.55,3.9.18,7.35,0.08a8.2,8.2,0,0,1,2.1.43,6.37,6.37,0,0,1,1.29-5.28c2.44-3.39,2.83-3.82,3.38-5.23a2.86,2.86,0,0,0-.22-2.06l0.64-.38Z" transform="translate(-0.74 -29.6)" fill="#fff"/><path d="M293.8,382a5.17,5.17,0,0,1-4.44-2.81,10.59,10.59,0,0,1-5.88,1.62c-7.1-.87-16.6-3.29-20.81-6.32a40.4,40.4,0,0,1,15.06-10.42,7.41,7.41,0,0,1-1.4-1.64c-7.82,0-12.88-9.64-9.63-15.92-4.7-6,5.48-17.82,11.23-16.3,4.47-5.26,12.87-3.87,17.19,1.33,8.59-.46,12.29,11.43,8.38,17a7.66,7.66,0,0,1,.41,2.44c6.56-6.41,18.22-3.91,24.83,2.44-9.85,8-16.85,18.67-26,14.9,0.34,3.73-2.5,9.81-9,13.63h0v0Z" transform="translate(-0.74 -29.6)" fill="#fff"/><path d="M271.09,373.1c9.32,2.18,15.67,6.57,18.59-2.38C284,361.33,269.63,374.3,271.09,373.1Z" transform="translate(-0.74 -29.6)" fill="#bcbec0"/><path d="M292.87,367.1a6.93,6.93,0,0,0,1,0,12.91,12.91,0,0,0-.61-3.66,5.61,5.61,0,0,1-1-.12,7.19,7.19,0,0,1-1.57,1.66,12.21,12.21,0,0,1,2.2,2.16h0Z" transform="translate(-0.74 -29.6)" fill="#bcbec0"/><path d="M321,353.82c-13.57-6.15-18.08,5-18,7.06a6.29,6.29,0,0,1,.11,2.34C309.22,368.08,318.63,355,321,353.82Z" transform="translate(-0.74 -29.6)" fill="#bcbec0"/><path d="M285,362h0c4,0,3.8-2.24,4.5-5.42,4.06,2.5,3.75,2.87,5.83,1,6.16-5.46,3.28-8.25,2.25-9.82,1.19-1,4.1-2.59,2.2-7.75-2-5.32-5-3.56-6.81-2.94-2.31-6-11.45-8.49-13.55.56-0.22-.24-2.39-2.75-2.67-2.91-2.55,1-4.21,3.23-5.13,4.26-2.45,5.06-1.84,4.51,2.63,7-2.58,2-5.1,3-3.55,6.95,2.57,7.58,7.19,4.15,8.78,3.45h0C279.76,358.84,279.8,362,285,362Z" transform="translate(-0.74 -29.6)" fill="#bcbec0"/><path d="M278.74,333.4c2.63-6.26,12.09-4.92,15.36.79,7.13-2.46,11.39,9.94,6.63,14,2.26,3.43-.17,7.91-3.79,11.13,1.37,1.45,2.07,3.79,3.19,4.71,1.64-1.26.17-2.82,0.57-4.43,4.76-13.33,17.68-10.85,24.42-6.23-7.12,5.78-15.3,18-23.64,11.56-0.25.36-.53,0.2-0.79,0.53-0.85,1.29.06,3.06-.38,4.91a16,16,0,0,1-7,9.19c-1.59-.24-2.23-1.9-2.45-3.13,1.82-1.54,4.52-3.6,4.57-5.79-1.2.88-2.47,0.46-3.68,1.34-3,8.92-10.72,6.68-16.52,4.65-3.26-1.14-6.63-1.36-8.78-2.62,4.11-4.14,12.44-9,17.92-9a9.06,9.06,0,0,1,7.24,4.33,7.79,7.79,0,0,0,4.53-.58,15.75,15.75,0,0,0-1.42-8.07c-1.16.66-2.37,0.31-3.61-.45-1.35,6.11-12.42,4.75-13.39-.57-6.47,2.85-13.22-9.23-7.74-13.42-3.7-2-1.7-5.77-.31-8.62C272.24,334.76,276,330.6,278.74,333.4Zm-6,3.26c-1.06.12-1.07,1.57-2,2.23a13.87,13.87,0,0,1,1.76-.59c0.59-.57-0.08-1.07.23-1.64h0Zm1.46,2.86c-2,0-6.46,2.5-4.45,5,1,1.27,4.32,1.79,5.73.5,1.7-1.56,1.11-5.77,4.25-5.77-0.54-1.55-.57-4.22-2.23-5.09C274.17,332.41,273.61,338.91,274.2,339.52Zm18.63-4.93c-1.18-3.45-4.56-1.52-6.52,0-1.44-2.79-4.48-4.34-6-1.63-0.68,1.24.09,4.9,2.12,5.91s5.36-2.5,7.25.94C289.68,339.81,292.4,335.55,292.83,334.59Zm-6-1.92c0.51-.66,1.06-0.54,1.57-1.06-1.13-.73-2.2-0.51-3.33-0.84C285.66,331.53,286.54,332.11,286.85,332.67Zm-12.73,20.41a8,8,0,0,0-.2,5.39c3.24,2,7-3.29,5.39-5.67-0.44-.62-1.4-0.64-1.85-1-1.45-1.29-1.39-2.75-1.21-4.17-2.18-.74-7.94-0.37-6.7,2.65C270.33,352.1,273.33,352,274.12,353.08Zm8.54-7.48c-0.19-1.16-3.15-1.32-2.43-2.8,1.16-.7,2.44.85,3.65,1.1a12.66,12.66,0,0,0-3.14-3.74c-2.44.72-2.91,3-3.48,4.89C277.26,345.07,282.63,345.6,282.66,345.6ZM272,356.77c0.26-.94-0.38-1.83.34-2.79-0.75-.72-1.44-0.45-2.2-1.37C270.18,354.2,270.58,354.74,272,356.77Zm5.79-10.25c-1.64,2.57,1.68,4.23,3,6.36,1.31-1.11,2-2.68,3.42-4.48-1.78.18-3.12,1.57-4.21,1.92-1.12-1,1.27-2.84,2.11-3C281.55,346.53,280,346.94,277.83,346.52Zm5.7-6c0.18,1,1.42,2,2,3,0.53-1.12-.27-1.44,1.51-2a1.15,1.15,0,0,1,.24,1.45c0.6,0.11,1.13-1.14,1.71-1.56C287.21,338.84,285.44,340,283.53,340.52Zm8.28-.62c2,2,3.29,4,2.29,6.07,1.93,0.36,4.76,1.92,6.23.63,2-1.76-.25-3.9-2.9-5.38,0.56-1.85,2-3.86.69-5.25C295.57,333.16,291.61,338.9,291.81,339.9Zm-0.9,1.35a15.22,15.22,0,0,0-2.88,3.91c1.08,0,2.07-1.8,3.2-1.15,1,1-1.23,2.07-1.83,2.38a7.91,7.91,0,0,0,2.94.17C294.09,343.64,291.34,341.58,290.91,341.25Zm-6.62,10.14c-1.42.63-2.09,2.61-2.73,3.73,1.84,1.77,3.47-.06,5.22,0,0.06-1.26-1.06-2.44-.69-3.71-0.71-.2-0.54,1.36-1.4,1.22C283.64,351.94,284.08,351.5,284.29,351.39Zm3.31-2a5.59,5.59,0,0,0,.75,4.68c3.32-.85,2.21-3.76,3.75-5.91-0.94-.29-1.85,0-2.79-0.34-0.22.77,0.92,1.5,0.12,2.27C288.39,351.09,288.24,349.63,287.6,349.39ZM281,362a7.54,7.54,0,0,0,3.45-2.47c1.25,0.43,2.91,2.6,4.52,2.2,1.7-1.82,0-4.18-2.08-5.26-1.86.74-3.76,1.46-5.7,0.12C281.15,357.57,277.5,360.61,281,362Zm19.19-23.54c-0.72.1,0,1.51-1,2.17a8.2,8.2,0,0,1,1.94,1.37A16.61,16.61,0,0,0,300.15,338.44Zm-30.06,33.89c-0.4.43-.06,0.32,0.19,0.48,3-.58,6-0.68,9.06-1.15,0.24-.5-1.71-0.72-1.06-1.57l0.46-.51c1.47,0.17,3.07,2.44,4.48,1.55,0.21-.72-1.89-1.31-1.25-2,1.39-1.44,3.09,2.77,4.49,1.55-0.13-.92-2.23-1.72-1.62-2.68,1.61-1.46,3.57,3.68,5.15,1.84C283.59,362.59,276.55,369.62,270.09,372.33Zm22.77-12.66c3.48-.18,2.8-4.34,2.26-6.31a7.43,7.43,0,0,0,5-2.88c-0.07-.37-0.49-0.73-0.22-1.13-2.53-1.39-5.52-2.41-7.17.07-0.69,1.08.17,4.88-3.24,5.71A11.83,11.83,0,0,0,292.86,359.67Zm-20.73,14.17c0.27,0.88,1.87.48,2.67,1.16l1.23-1.37C274.92,373.42,273,374.14,272.13,373.84Zm13.9-11c0.1-.83-1.1-0.58-1.54-1.38-0.4.72-.82,0.43-1.22,1.05C283.27,362.48,286,362.79,286,362.81Zm4.38,8.59c-1.19.12-2.37,0.4-3.56,0.52-1.56,1.24-2,3.93-3.69,4.12-1.27-1.13,1-2.44,1.43-3.66-2.13-.53-3.21,1.68-4.71,3.19-1.21-.75-0.56-1.6.35-2.46-1.35-.49-2.64.64-3.91,2.3C274.93,374.95,287,381.68,290.41,371.4Zm6.56-17c-0.21.82,0.18,1.62,0,2.44,1.24-.62,2.64-2.64,2.4-3.71A3.7,3.7,0,0,1,297,354.4Zm-0.26,7.18c3.39,12.32-3.39,12.93-4,15.86,1.47,0.67,3.42-2.27,4.06-3.15C301.07,368.72,297.84,362.5,296.71,361.58Zm8.77-6.35c-2.55,1.88-4.07,5.11-3.18,7.34C306,362.16,305.25,356.16,305.48,355.23Zm2.94-2.93c-2.68,2.06-1.14,5.13-1.83,7.6C306.59,359.9,308.27,358.46,308.42,352.3Zm2.06-.93c-0.61,2.31-.71,4.6-1.57,6.93,2.78-.79,2.06-4.64,3.37-6.87C312,351.09,312,351.37,310.48,351.37Zm10.19,1.73c-1.62-1.7-4.54-1.67-6.62-1.92-1.14,1.69-1,3.31-1.64,5C312.5,355.92,317.52,353.11,320.67,353.1ZM303.23,364a5.85,5.85,0,0,0,5.27,1c-0.34-1.23-2-1.66-2.91-2.61C304.81,363.07,304,363.06,303.23,364Zm3.93-2.66c0.46,1.34,2.27,1.83,3.25,2.91,0.61-.76,1.28-0.52,1.88-1.4-1.71-.45-3.48-2.1-5.13-1.49v0Zm6.55,0.62a5,5,0,0,0,1.55-1.39c-1.91-.22-3.94-2.57-5.73-0.49A34.05,34.05,0,0,1,313.71,361.94Zm3-2.65a37.51,37.51,0,0,1,5.1-5,18.6,18.6,0,0,0-9.25,3.82C312.53,358,316.55,359.26,316.67,359.29Z" transform="translate(-0.74 -29.6)" fill="#231f20"/><path d="M351.12,335.53a4.2,4.2,0,0,1,.16-6c0.19-9.91.25-18.44,0.49-28.29-3.76-.29-13.68-0.59-14.45,3a5.46,5.46,0,0,1,1.07,3.78c5.08,4.17-4.77,9.36-5.65,3.05a4,4,0,0,1-2.16-2.45c0.37-1.64.53-1.84-.82-4.12-2.12-3.19-1.87-5-2.22-8.85-0.37-7,5.26-14.56,21.68-14.29,0-1,.43-0.87,1.07-1.46h0c-0.73-3.3,1.23-5.5,2.93-9.48l3.46-.32c1.93,3.65,4,6.76,3.2,10,1.09,1,.93,1.7,1.15,4a14,14,0,0,1-2.55,1.94c-0.45,14.11-.3,28.77-0.85,43.29,1.59,1.79,2,4.65.39,6.47C358.31,341.29,349.75,340.84,351.12,335.53Z" transform="translate(-0.74 -29.6)" fill="#fff"/><path d="M333.33,301.59c3.06-5.83,13.47-5.49,20.11-4.92,0.06-3.7.14-7.4,0.25-11-0.22.21-.68,0.59-0.91,0.79C332.4,284.17,329.13,293.61,333.33,301.59Z" transform="translate(-0.74 -29.6)" fill="#bcbec0"/><path d="M354.7,272.65h0.5c1.26,2.38,3.65,5.83,1.54,8.4,2.14,0.95,2.39,2.28-.3,3.44-0.53,15.34-.35,31.11-1,46.08,1.48,0.53,1.89,3.72-.25,4.16,0.62,1.31.3,2.56-1,2.56-1.55.2-.5-1.8-0.73-2.44-0.36-1-2.59-2,.1-4.28,0.21-10.47.28-21.06,0.57-31.47-6.07-.61-19.89-1.47-19.26,6.33,1.66,0.66.86,1.87,1,3.17,0.16,1.08,2.17,1.63,1,2.67a2.13,2.13,0,0,1-1.47.39,1.93,1.93,0,0,1-.46-2.22c-0.72-.33-1.74-0.3-2.11-1.06,0.81-3.56-2.15-5.15-2.81-8.53-3.18-13,8-17.37,21.88-15.88-0.59-1-2-2.14,1.23-2.88C351,278,353.66,275.1,354.7,272.65Zm-21.29,16.83c-2.57,3.18-2.75,9.52,0,13.82,1.46-6.72,13.15-6.35,20.53-6.2-0.06-3.81.21-7.33,0-11.3C346.91,285.38,337.52,284.39,333.41,289.48Z" transform="translate(-0.74 -29.6)" fill="#231f20"/><path d="M351.37,249.91c-3.88,0-13-.5-14.28-5.17a7.2,7.2,0,0,1,1.2-5.61,25.31,25.31,0,0,1-4.11-5.52c-10.88-1.17-7.4-16.2-9.47-19.06-1.79-2-5.95.18-6.52-7.38,0.94-1.39,2.07-3.9,6.94-3.95,6.53,0,9.11,6.3,10.84,11.7,1.8-2,3.5-3.59,5-5.29a3.32,3.32,0,0,1-.12-4.5c-0.35-.65-0.65-1.32-1-2h0c-3.32-1-3.76-4.72-3.59-8.09,0.43-9.37,12-14.73,15-13.59,10.25,3.75,13.06,10.55,12.16,20.27-2,.83-2.42.8-4.22,3.42h0a4.12,4.12,0,0,1,.65,4.35c9.13,9.07,11.88,20.76,2.55,29.61a7.46,7.46,0,0,1,2.12,4.73c-0.2,5-7.86,6.17-13.15,6.12h0v0Z" transform="translate(-0.74 -29.6)" fill="#fff"/><path d="M341.61,243.43c1.68,1.71,14.22,3,18.21,0-1.21-2-1.49-1.32-3.21-5.71,13.69-10.57,4.11-20.53-4.38-29.76a12,12,0,0,1-1.33-.31c6.66-7.32,5.38-7.09,8.08-9,0.21-6.24-2.56-10.18-8.84-12.61-5.76.42-11.1,8.81-8.86,12.6h0l1.55-.08c2.57,5.25,1.88,4.25,4,7.21l-1.12,1.48a5.31,5.31,0,0,1,1,2.33c-6.43,9.15-5,3.16-12.16,16.18-4.05-11.71-5.1-17.93-9.53-17.93-0.5,0-2.13.15-2.13,0.65,1.22,0.94,3.39.47,5.51,3.24,1.25,1.73,1.58,4.38,1.73,6.74,0,11.24,3.7,10.36,7.23,10.78,1.7,4.51,2.26,4,6.35,9.18-1.91,4.2-2.14,3.57-2.24,5h0Z" transform="translate(-0.74 -29.6)" fill="#bcbec0"/><path d="M350.48,183.7c6.21,2.27,11.65,6.67,10.76,16.45-2.68,1.11-3.66,3.68-5.4,5.6,1.76,0.15,3.15,3,.71,3.62,9.88,9.34,13.5,21.34,2.89,29.14,0.89,2.27,2.85,3.47,2.77,5.19s-2.85,3-5.13,3.42c-5.72,1.09-16.86.31-17.71-3-0.53-2,.92-3.49,1.75-5.32-1.87-2.33-4.13-4.22-5.31-7.36-10.65-.47-6.16-14.12-9.18-18.29-1.72-2.38-4.57-1.18-5.91-3.86,0-1-.62-2.55,2.11-3.4,8.49-2.37,10.25,8.25,12.31,14.17,2.32-4.22,6.38-7,9.1-10.85-0.77-1.08-3.73-1.5-.26-3.42a30.93,30.93,0,0,1-2.52-4.77c-2.9.15-2.93-3.51-2.83-5.83C338.89,189.28,345.5,184.1,350.48,183.7Zm-0.77,1.36c-4.66,1.25-10.16,5.35-9.66,12,6.23-2.58,15.12-1.89,19.91.63C360,188.27,350.71,184.8,349.71,185.06Zm-9.49,14.11a15.48,15.48,0,0,0,7,1.4,1.56,1.56,0,0,1-.4-3C344.28,197.84,341.34,197.72,340.22,199.17Zm12.65,1.63c2.49-.27,5.51-0.08,6.8-1.38a9.36,9.36,0,0,0-5.94-1.49C354.74,198.36,355,199.46,352.87,200.8Zm-7.61,4.91c3.33-.46,5.9,0,9-0.26,0.76-.85,2.67-2.75,2.11-3.4a45.72,45.72,0,0,1-13-.3c0.46,1.56,1.4,2.48,1.89,3.94v0Zm-22.16,3.87c0.45-.88,1-1.65,1.54-2.49C321,207.14,321.69,209.7,323.1,209.58Zm12,12.4c-3.66-4.15-2.7-13.68-9.11-14.63-0.43,1.1-1.23,1.89-1.72,2.94,5.53,0.46,4.52,7.2,5.08,12.78,0.42,4.23,2.49,6.4,5.91,6.67C334.25,227.56,334.52,224.12,335.09,222Zm21.35-14.38c-3-1.13-8.3-.76-12.1-0.15,2.75,1.26,8.75,1.95,12.08.19Zm-1.77,2.29c-2.85-.63-6.31,1.35-9.08-0.16-2.35,3.86-6.69,6-8.49,10.37,3.49,5.64,19.73,4.49,26.17.58C361.67,217.7,357.13,210.45,354.67,209.89Zm9.1,12.3c-7.39,3.72-22,4.84-27.44-.27C332.17,245,368.8,246.17,363.77,222.19ZM340.6,243.83c4.35,2.76,15,3.29,20.09.19a10.19,10.19,0,0,0-2.51-4.56c-4.41,2.76-11.95,1.31-15.75-.3A12.25,12.25,0,0,0,340.6,243.83Z" transform="translate(-0.74 -29.6)" fill="#231f20"/><path d="M279.77,187.92c-0.38-4.19-.37-5.67-3.92-13.2-4-8.57-5.79-16.16-.34-24.27a6.58,6.58,0,0,1,2.67-7.16c0.16-3.17,2.44-4.62,4.24-5.37,1.45-8.45,12.93-6.75,13.3.33,1.6,1.1,4,3,3.88,6.17,3.14,2.18,5.25,4.48,3.51,8.57,2.55,4.14,5.83,7.7-2.68,21.21-2,3.14-3.77,5.65-4.78,11.8C291.68,204.9,281,202.19,279.77,187.92Z" transform="translate(-0.74 -29.6)" fill="#fff"/><path d="M280.09,172.73c3.62,7.68,3.88,9.71,4.32,14.8,0.26,3,.54,6.34,1.87,7.05,3,0,4.13-6.58,4.75-9.5,1.16-7,3.44-10.17,5.39-13.38,2.73-4.34,5.31-8.45,4.54-13-0.83-2.55-2.26-2.76-2.82-5.75h0c-0.21-2.19,2.51-2.11-.85-4.4-1.48-1-2.94-2-2.5-3.7,0.28-1.09-.07-1.58-2.09-3-1-.7-2.16-1.38-1.74-3.05,0.21-.85-0.62-1.92-2.84-1.8-2.11,1.28-.24,4-2.87,4.81s-2.57,1.17-2.38,2.37a2.34,2.34,0,0,1-1.43,2.53c-1,.46-2,1.75-1.32,2.67a2.35,2.35,0,0,1-.09,2.69C275,158.49,276.34,165.65,280.09,172.73Z" transform="translate(-0.74 -29.6)" fill="#bcbec0"/><path d="M287.53,134.76c3.77-.88,6.33,2.29,5.75,4.67,1.76,1.3,4.68,2.66,3.83,6,1.2,1.14,6.36,3.36,3.39,7.29,0.14,1.42,2.44,3.44,2.8,5.58,1.26,7.35-4.66,13.41-7.66,19.38s-2.2,16.42-7.93,19.14c-5.82.33-5-5.39-5.91-12.14-1-7.4-6.14-13.66-7.08-19.81-0.18-3.13-1.2-8.18,3.46-14.18-1.67-2.56.42-5.31,2.4-6.12-0.52-3.3,1.65-4.2,4-5A5.11,5.11,0,0,1,287.53,134.76Zm-1.26,4.31a9,9,0,0,1,5.5.2C292.18,135.18,285.95,135.49,286.27,139.07Zm-4.22,5c4.67-1.44,10.15-.6,13.76.74-0.43-5.67-12.47-5.83-13.72-.77Zm7.28,0.85c-4.63-.2-10.45.38-10,4.79,10.1-5.29,18.27.48,20.28,1.37-0.18-3.36-5.77-6-10.28-6.19v0Zm-13.24,17.65c0.5,8.1,6.46,14.86,7.5,23,0.61,4.83.19,9.39,3,9.56,4.58,0.26,5-11.47,6.38-15.57,1.81-5.36,9.48-13.24,8.86-20.19s-8.44-11.66-16.52-10.06C278.88,150.62,275.64,155.34,276.09,162.57Z" transform="translate(-0.74 -29.6)" fill="#231f20"/><path d="M291.09,154.76c-0.36,1.48-1.68.65-2.45,0.88-9.52,2.85.58,14.45,0.48,22.42-0.1,2.43-1.08,13-4,13.94-0.56-2.11,1.26-4,1.4-6.31-0.38-.57-1.45,1-2.24.12,0.77-2.38,3.55-3,3.14-6.41-0.69-.52-1.66,1.71-3,0.66,0.59-2.24,4-2.85,2.39-6.36-1,1.28-3.18,4.1-4.85,2.51,1.51-1.83,5.15-3.09,3.39-6.42-1.33.79-3.18,4.05-4.86,2.26,1.08-1.84,4.65-2.54,3.43-5.67-0.73.93-2.3,2.79-3.65,1.7,0.49-1.6,2.68-2,3-4.4,0.22-1.67-.62-4.11.17-6C285.54,153.87,289.51,153.37,291.09,154.76Z" transform="translate(-0.74 -29.6)" fill="#231f20"/><path d="M238.15,165.83c-1.47-3.35-3.35-19.46-17.16-21.52a5.84,5.84,0,0,0-2.66-2.53,4.67,4.67,0,0,0-1.25-2.22c0.29-2.17-.06-5.24-2.06-6.8-1.27-1-4.38-1.24-5.54.15-2.71,2-2.49,5.77-3.08,8-2.37.62-3.12,1.92-4.12,2.7-1,.34-14.92,1.7-17.42,16.31a10.61,10.61,0,0,1-1.15,3.6c-3.28,2.11.82,8.9,5.51,5.64,1.79-1.25.91-4.49,1-5.87a5.19,5.19,0,0,1,3.28.11c-0.59,1-2,2.16-1.4,4.59a3.92,3.92,0,0,0,7.27.74c0.94-1.52-.33-2.38-0.08-4.71a3.63,3.63,0,0,1,2.05.08c-4.45,5.31,4.78,10,6.88,4,0.54-1.32-.25-2-0.62-3.54q0.42-.11.9-0.18v12.79c0,6-1.92,15.19,2.15,19.54,3.34,3.49,10,3.17,12.07-2.08,0.67-1.68,1.63-8.28-1.1-10.56s-4.9,1.91-4.53,5.82c0,1.45,0,2.57-.43,2.77a2.82,2.82,0,0,1-1.29.4c-1-.93-0.73-5.73-0.73-22.92,1.89,2.7,6.45,1.58,7.28-1.33,0,2.48,5.51,4.58,7.58.62a3.91,3.91,0,0,0-.66-4.25,2.75,2.75,0,0,1,2.46-.13c-0.57.8-2.6,5.94,3.06,6.41A3.93,3.93,0,0,0,238.15,165.83Zm-16.28,1.41c-0.07-.26-0.78-2.49-0.79-2.55a4.56,4.56,0,0,1,1.63.17A7.61,7.61,0,0,0,221.87,167.24Z" transform="translate(-0.74 -29.6)" fill="#fff"/><path d="M225.91,161.36a7.63,7.63,0,0,1,5.68-1.26c-1-3.76-5-10.89-12.44-11.33a2.34,2.34,0,0,1-2.19-2.05c-0.08-.69-0.55-0.74-2.05-1.46-2.17-1.1-.38-1.74-1.3-2.66a3.49,3.49,0,0,1-1.22-3.1c-0.05-1,.4-1.11-0.07-2.77-0.43,0-.87,2.52-0.89,2.95a11,11,0,0,1-1.54,4.86c-1.25,1.76-2.33.1-3.67,1.87-2.25,2.46-4.94,2-6.71,2.49a16.91,16.91,0,0,0-9.4,9.65c2.55-.42,4.82-0.21,6.72,1.48a8,8,0,0,1,7.9.54,17.32,17.32,0,0,1,13.12.16C219.88,159.84,223.53,159.64,225.91,161.36Z" transform="translate(-0.74 -29.6)" fill="#bcbec0"/><path d="M214.61,139.91c-0.17,1,2,1.51,1.27,3.26,1.41,0.71,3.05,1.13,3.32,3.27,13.73,0.79,15.45,17.69,16.81,20.39,0.66,2.71-2.81,2.43-3.27,1.28-0.05-2,1.32-2.06.7-3.94-0.89-2.69-6.23-2.28-7.23.35-0.36,1.64,1.79,2.33,1.09,3.74a1.92,1.92,0,0,1-3.16.13c-0.38-2.07,1.54-2.31.6-4.84-1.14-1.33-3.78-1.47-6-.7-0.57,2.13.36,3.2,0.8,5.14-0.76.56-.93,1.35-2.14,1.15-2.7-.45.58-3.8-0.23-6.11a11.32,11.32,0,0,0-4.68-1.3c-0.47,6.43-.3,15.54-0.38,23.22,0,4.57-.65,12.6,5.38,9.63,3-1.49.8-6.4,2.42-8.9,1.38,1.16,1.09,6.22.42,7.91s-1.88,2.27-3.76,2.92c-8.61,0-5.84-11-5.78-19.37,0-5.62-.16-10.91.1-15.46a16.78,16.78,0,0,0-5.34,1c-0.8,1.58-.16,3,0.5,4.49a1.77,1.77,0,0,1-3.39.15c-0.37-1.4,2-2.76,1.35-4.24-1.11-1.56-4.33-2.16-6.46-.87-1,1.83-.48,3.54-0.1,5.23a1.72,1.72,0,0,1-3.19-.1c-0.46-1.61,2-2.55,1.55-4.49-0.54-2.43-3.78-2.61-7-1.72-1.81,1.65-.35,3.91-0.92,6-2.67,1.2-3.18-1.33-2.7-1.72,1.91-2.33,1.76-5.28,2.57-7.56,4.21-11.57,14.46-11.76,15.46-12.2,1.31-.55,2.36-2.94,4.71-2.57,1.64-2.29.61-7,3.14-8.53C212.07,134.55,215.38,132.71,214.61,139.91Zm-3.85-.25c0.92,0,1.6.21,2.52,0.18,0-1.21.13-3-.45-4C210.77,135.27,210.8,137.91,210.76,139.66ZM209.54,143c1.41,0.16,3.52.65,5-.1C214.4,140.86,209.09,140.42,209.54,143Zm1.79,1.85c-2.73-.13-6.08-0.74-6.36,2.07a18.48,18.48,0,0,0,13,.15c0.12-2.87-3.88-2.07-6.63-2.23h0ZM188.9,159.59a9.59,9.59,0,0,1,7.63,1.2,20.29,20.29,0,0,1,7.91-12.69C199.66,144.48,189.68,153.88,188.9,159.59Zm9.19,0.79a9.56,9.56,0,0,1,6.21.68c0.2-4.82,2.22-8.18,3.92-11.8C201.91,149.08,199.72,155.51,198.09,160.38Zm28.18,2.1c2-2.88,5.68-.58,6.68-1.19-2.41-7-6.48-13.37-14-13.22,4.14,2.74,6.2,7.91,7.3,14.41h0Zm-16.21-13a24.17,24.17,0,0,0-4.39,11.62c3.95-1.57,8.42-.86,11.6.07a22.83,22.83,0,0,0-3.59-11.87c-1.2,0-2.78.58-3.64,0.21Zm5.23,0.14c2.22,2.69,3.25,7.59,3.59,11.87a7.58,7.58,0,0,1,5.68.05C224.2,160.54,221.92,146.42,215.29,149.62Z" transform="translate(-0.74 -29.6)" fill="#231f20"/><path d="M146.69,245.09a13.3,13.3,0,0,1-7.82-15,14,14,0,0,1,6.48-8.51,5.94,5.94,0,0,1,1.51-4.13,7.51,7.51,0,0,0,1.28-4.38c-3-3.28,0-5.85.7-7a31,31,0,0,0,0-6.62c-1.4-2.45-1.07-3.7.48-5.61a34.54,34.54,0,0,0-.17-8.41c-0.27-1-2.77-4.23,1-7.79a5.1,5.1,0,0,0,.69-0.88,2.32,2.32,0,0,1,2.21-1.93H154a2.33,2.33,0,0,1,2.28,1.5,6,6,0,0,0,.78,1.24c3.51,4.11,1.07,7,.8,8-0.53,3.17.12,9,.77,10a2.32,2.32,0,0,1,.26,2.15c-0.81,2.16-.45,6-0.45,8.23a5.77,5.77,0,0,1,.68,7.56,10.79,10.79,0,0,0,1.07,3.86,12.21,12.21,0,0,1,1.22,4.7c3.85,2.55,5.79,6.88,5.58,10.17-0.24,6-3,10.45-7.72,12.51-1.84,4-1,8-5.35,9.11a5.89,5.89,0,0,1-1,.07C148.83,254.21,148.37,248.59,146.69,245.09Z" transform="translate(-0.74 -29.6)" fill="#fff"/><path d="M152.9,212.26c0.14,1-.24,5.54-2.28,8-0.65.85-.69,0.9-0.39,1.8A2.34,2.34,0,0,1,149,225a9.53,9.53,0,0,0-5.56,6.39c-1.24,7.39,6.11,9.47,6.85,10.47,2,3,1.71,4.4,3,7.11,0.86-2.41.73-4.37,2.65-7.44,1.13-1.63,6.2-1.34,6.56-9.39,0-3.16-2-5.3-4.65-6.91a2.34,2.34,0,0,1-1.05-2.58c0.24-.94-0.12-1.89-0.79-3.5a13.58,13.58,0,0,1-1.38-6.79,2.36,2.36,0,0,1,.7-1.45A1.14,1.14,0,0,0,155,209c-1.38-.9-1-2.19-1.12-3.58a7.72,7.72,0,0,1-1.81,4.3C151.75,210.1,152.74,211.36,152.9,212.26Z" transform="translate(-0.74 -29.6)" fill="#bcbec0"/><path d="M152.85,197a4.38,4.38,0,0,1,.65,1.63c0,0.52.12,1.46,0.18,2.57a18.09,18.09,0,0,1,.5-4,12,12,0,0,1-.47-1.52,4.69,4.69,0,0,1-.85,1.36h0v0Z" transform="translate(-0.74 -29.6)" fill="#bcbec0"/><path d="M153.52,183.74c0.36-.86.47-0.89,0.71-1.44a2.73,2.73,0,0,0-.61-1.4,2.91,2.91,0,0,0-.85,1.24h0A13.16,13.16,0,0,1,153.52,183.74Z" transform="translate(-0.74 -29.6)" fill="#bcbec0"/><path d="M153.14,177.21h0.92c0.66,1.71,2.39,2.77,2.5,5,0.06,1.16-.83,1.79-1,3-0.55,3.27,0,10,1.15,11.73-1,2.64-.64,6.53-0.53,10.18a3.49,3.49,0,0,1,.67,5.52c-0.44,4.45,3,7.18,2.1,10.64,9.56,5.77,6,17-1.23,19.63-1.64,2.38-1.52,5.37-2.92,8.19a8.66,8.66,0,0,1-2.52.56c-2.22-1.85-2.3-6-4-8.39-9.48-3.61-10.15-16.23-.35-20.36-1-3,.82-3.55,1.64-5.37a16,16,0,0,0,1-4.89c-0.13-.91-1.43-1.28-1.27-3,0.11-1.14,1.42-1.64,1.8-2.95,0.57-2,0-7.94,0-7.94a11.05,11.05,0,0,1-.86-1.94c0.06-1.07,1.09-1.37,1.29-2.36a35.48,35.48,0,0,0-.13-9.46c-0.22-1.21-1.07-1.93-1-3C150.48,179.87,152.85,179,153.14,177.21Zm0.75,7.35c2.3-.22,1.79-4.78-0.45-5.52C150.91,181.27,151.39,184.74,153.89,184.56ZM153,185.75a1.83,1.83,0,0,0-.2.7c0,1.33.19,3,.18,4.61s-1,4.2,1.09,4.34c1.06-2.36.28-6.41,0.32-9.71Zm-1.15,12.05c1,0.18,3.75.64,3.67-.83-0.36-1.15-5-.93-3.67.84h0Zm0.6,9.44c0.51,0.41,1.7.09,2.54,0.13,0-2.72.13-5.37-.09-8.31l-2.54.1C152.55,201.07,152.46,207.86,152.46,207.24Zm-1.94,3.54c1.28,1,5.48,1.31,6.46-.25a3.82,3.82,0,0,0-.29-1.6c-2.12.21-6.91-1.49-6.17,1.86h0Zm0.27,7.2a38.18,38.18,0,0,1,5.54,0,20.52,20.52,0,0,0-.91-5.51C150.83,211.46,151.31,215.16,150.79,218Zm-1.7,4.41a21.09,21.09,0,0,1,8.45.35C159.3,217.82,146.7,217.34,149.09,222.39ZM151,242c-1.13-5.32-1.66-14,0-18.53a0.36,0.36,0,0,0-.46-0.21h0C146.86,227,147.26,238.3,151,242Zm1.64,0.63c0.43-5.68.07-13.47,0.41-19.24a1.82,1.82,0,0,0-.7-0.21c-2.07,4.61-1.83,14.51.29,19.47v0Zm1.15,0c2.29-4,2-13.66.65-19a0.36,0.36,0,0,0-.46-0.21h0c0,6-.1,13.26-0.18,19.19v0Zm-5.56-18.55c-5.71,3.41-2.81,17.82,1.39,18-3.07-4-3.83-13.75-.93-18h-0.46Zm9.26,0.57c2.75,4.16,1.82,13.2.66,17.12,3.63-3.24,4-15.15-.69-17.81-0.08.31-.26,0.38,0,0.67v0Zm-2.09,17.68c3.8-2.43,3.83-14.13.46-18.08,0.69,5.61.93,13.67-.47,18.06v0Zm-9.78-2.39c-1.54-2.86-1.71-10.19-1.2-13.17C140.16,232.3,142.85,239.88,145.65,239.92Zm15.67-.61c2.83-2.24,3-10.64-.26-12.75,1.53,3.31.67,10.07,0.25,12.73v0Zm-5.37,4.36a18.51,18.51,0,0,1-6.23,0c0.29,2.47,5.83,2.31,6.22,0h0Zm-5.19,3.2c0.42,1.38,4.73,1.75,4.6-.41a0.68,0.68,0,0,0-.48-0.44c-0.87,1.16-3.53-.21-4.13.84h0Zm1.24,2.26a2,2,0,0,0,.28,1.38c1.26,0.05,2.32-.07,2-1.46-0.93.21-1.92-.26-2.29,0.07h0Z" transform="translate(-0.74 -29.6)" fill="#231f20"/><path d="M155.14,339.41c-0.26-1.48-.47-3-0.67-4.49-0.25-1.85-.51-3.72-0.86-5.47a23.15,23.15,0,0,0-.26,5.42c0.86,7.46-6.52,9.42-6.36-.78a13.57,13.57,0,0,0-.74-5.23,19.24,19.24,0,0,0-.47,5.88c0.83,7.71-6.49,9.26-6.34-.47a17.3,17.3,0,0,0-2.29-9.17c-0.8-1.22-.86-5,3.19-4.75a13,13,0,0,1,1.19-2.87c-3.26-3.14.86-7.54,4.24-4.57,0.86-2.71.17-11,.74-25a6.34,6.34,0,0,1-2.17-3.27c-1-4,0-9.51-.09-14.11-0.37-2.46,4-4.08,5.79-.51,2.09-2.3,4.75-1.86,5.31.13,1.18,4.17.49,9.68,0.56,14.28,0,1.57-1.59,2.74-2.4,3.74a87.47,87.47,0,0,1-.06,10.45c-0.09,2.17-.65,12.47.53,14.26a23.41,23.41,0,0,0,2.89.08c2.51-.06,3.18,3.17,1.38,4.89a18.23,18.23,0,0,1,1.14,3.2,3,3,0,0,1,3,4.87c-2.07,2.15-1.12,8.11-2.23,13.81C159.52,342.32,155.6,342,155.14,339.41Z" transform="translate(-0.74 -29.6)" fill="#fff"/><path d="M146.58,270.39h0.89c0.68,1.22,1.67,2.09,2.4,3.23,1.27-.77,1.56-2.42,3.21-2.85,1.06,3.71.39,9.4,0.47,13.63-0.81,1.32-1.68,1.68-2.5,3,0.85,5.42-1,19.07.3,25,0.73,3.32,2.77,2.79,5.55,2.74,0.07,1.13-.92,1.3-1.94,1.44a16.07,16.07,0,0,1,2.61,7.25c1.73,0.33,2-1.32,3.12-.38v0.67c-3,3.11-1.71,10.1-2.82,14.92h-0.45c-1-5.53-1.23-11.84-3.5-15.94,0.67-.62,1.55,0,2,0.35-0.46-3.89-1.83-6.78-5.29-7.34-0.23,2.35-.08,5-0.06,7.62,1.25,0.25,1.44-1.26,2.43-.57,0.55,1-.61,1.74-1,2.73a26.28,26.28,0,0,0-1.17,7.89c0,1.57.8,3.91-.64,5-1.41-1.56-.77-4.59-1-6.67a36.66,36.66,0,0,0-2.7-9c0.81-.67,1.83.06,2.48,0.32,0.25-2.19,0-4.8.08-7.17-3.73.75-5.09,3.63-5.68,7.23,0.75,0.66,1.42-1.33,2.23-.11a24.22,24.22,0,0,0-2.39,10.19c0,1.76.8,3.93-.63,5.18-1.41-1.48-.75-4.29-1-6.44a20.49,20.49,0,0,0-2.66-8.37v-0.89c1.12-.74,2,0.56,3.16.51a11.65,11.65,0,0,1,2.57-6.62c-0.87-.38-2.51-1.14-1.91-2.37,1.73-.42,1.51,1.38,3.42,1.17,2.79-.31,2.29-7.8,2.34-12.5,0.06-6,.11-11.91.3-15.91-0.47-1.16-1.79-1.45-2.22-3.17C145.65,280.29,146.77,274,146.58,270.39Z" transform="translate(-0.74 -29.6)" fill="#231f20"/><path d="M199.22,383.37A6.79,6.79,0,0,1,203.4,375c0-.13.31-1,0.31-1.1-3.59-3-2-9.57-.93-10.74a2.37,2.37,0,0,1-.65-1.75,2.79,2.79,0,0,1-1.25-3.58,3.19,3.19,0,0,1-1.37-2.87,3,3,0,0,1-.26-0.24c-1.6.62-3.83,0.24-4.61-1.14-1.79,0-3.78-1.35-3.53-3.2a3.75,3.75,0,0,1-3-2.73,3,3,0,0,1-2-3.25c0-1.85,2-2.61,3.85-2.94a2.72,2.72,0,0,1,.71-1.32,5.59,5.59,0,0,1,1.47-4.08,2.66,2.66,0,0,1,1.5-4c-0.19-2,.62-4.25,2.7-4.15a4.21,4.21,0,0,1,3.39,2,6.76,6.76,0,0,1,1.35-.1,3.75,3.75,0,0,1,1-3.15,4.09,4.09,0,0,1,.6-2.25,2.35,2.35,0,0,1,2.59-1,5.55,5.55,0,0,1,2.95,1.92,2.85,2.85,0,0,1,3.69,2,5,5,0,0,1,3.55,2.25,2.36,2.36,0,0,1,.92.07,5,5,0,0,1,1.81-1.35,2.31,2.31,0,0,1,1.28-1.74,19.43,19.43,0,0,0,.85-2.7c0.83-1.18,3.28-1.82,5.48.39a3,3,0,0,1,4,1.36c4.2,0.14,5.37,3.64,3.19,5.22a2.91,2.91,0,0,1-1.55,2.37,2.46,2.46,0,0,1-1.27,2.57c0,2.23-2.93,3.17-5.3,2.7,0.46,1.09,1.44,1.42-.15,4.34a2.34,2.34,0,0,1,.78,1.19,6.55,6.55,0,0,1,1.51.8,3,3,0,0,1,4,1.18c2.2,0,4.35.36,4.35,2.58a2.94,2.94,0,0,1-1.57,3.07c0.27,1.58-1.18,3-2.6,3.45,0.31,1.66-1.24,2.92-2.82,3.29-0.63,3-5.45,2.29-7.69-.21a18.67,18.67,0,0,1-5.94,1.76h0c2.83,0.11,6,.47,7.71,3.23,2.09,3.48,1.85,8.57-1.17,10.81,0.11,0.37.23,0.77,0.33,1.2a7.17,7.17,0,0,1,4.15,8.94C222.82,390.33,200.76,390.5,199.22,383.37Z" transform="translate(-0.74 -29.6)" fill="#fff"/><path d="M206.54,366.14c-0.49,1.87-.67,3.93.71,4.43a2.34,2.34,0,0,1,1.5,2.66c-0.15.72-.95,3.39-1.07,4a2.35,2.35,0,0,1-1.91,1.93,2.26,2.26,0,0,0-2,2.91c1.15,2.23,14.49,2.75,17.77,0,0.06-1.89-.78-2.48-2.46-3a2.34,2.34,0,0,1-1.69-1.91c-0.12-.7-0.92-3.51-1.07-4.24a2.34,2.34,0,0,1,1.85-2.75,1.48,1.48,0,0,0,.78-0.56,4.91,4.91,0,0,0-.4-4.16c-0.66-1.08-9.7-1.6-12,.61h0Z" transform="translate(-0.74 -29.6)" fill="#bcbec0"/><path d="M228.34,349c0.12-.75.58-1.15,0.65-2a0.33,0.33,0,0,1-.42-0.2v0c-0.88,0-.75,1.13-1.08,1.73-0.93-1.24-1.91-2.43-3.9-2.6a6.2,6.2,0,0,0,3.47,3c0,0.91-.82.91-0.87,1.73-0.83-1.34-1.27-3.06-3-3.46-0.18,1.48,1.59,2.89,2.17,4.33a3.08,3.08,0,0,0-1.08,1.08c-0.64-1.16-.72-2.88-2-3.47-0.1-.68.67-0.49,0.43-1.3-1.22-1-3.47.13-4.55,0.65-0.29-.16.36-1.22,0.43-1.73,2,0.38,4.33-.33,4.76-2.16-1.25-1-3.55.42-4.33,1.3-0.55-.56.3-1.56,0-2.6,2.3-.16,3.91-1,4.33-3-1.38-.86-3.26,1.1-4.11,2.17-0.49-.23-0.08-1.36-0.22-2a4.4,4.4,0,0,0,3.9-3.25c-1.58-1.13-3.16,1.26-3.9,2.38a6.72,6.72,0,0,1-.65-2.6,4.34,4.34,0,0,0,3.25-3.68c1.87,1.57-2.14,2.31-1.52,3.9,1,0.11,2-1.61,2.82-2.38,0.89,0.92,3.44,2,5,.87-0.73-1.15-2.34-1.41-4.11-1.52,0-.4,1.11-0.73.43-1.08,0.56,0.17,3.65,1.74,5,.44-0.46-1.3-3.07-1.29-4.33-1.08a17.7,17.7,0,0,1,.86-1.73c1.11,0.49,4.09,1.3,5,0-0.76-.92-3.12-1.09-4.55-0.65,0.21-.44.44-0.86,0.65-1.3a5.18,5.18,0,0,0,5,0c-0.51-1.25-3.18-.91-4.55-0.65-0.14-.86.57-0.87,0.43-1.73-0.31,0-.61,0-0.65-0.22a2.65,2.65,0,0,0-.65,1.52,19.32,19.32,0,0,0-3.25-2.6h-0.87a4.93,4.93,0,0,0,3.69,3,5.46,5.46,0,0,1-.65,1.51c-0.92-1.24-1.8-2.53-3.46-3,0.22,2,1.78,2.7,3,3.68-0.22.57-.36,1.23-1.08,1.3a5,5,0,0,0-3.25-3c0.43,1.81,1.79,2.69,3,3.68a5.68,5.68,0,0,1-.87,1.3c-0.91-4.5-4.8-4.51-5.63.22-0.62-.46-0.56-1.61-1.3-2-1.25.51,0.14,1.36,0.21,2.38-1.69-.57-3.48.34-4.55,1.08,1,0.92,4.09.42,4.77-.43a2.39,2.39,0,0,1,.86,2,5.8,5.8,0,0,0-4.54,0c0.55,1.39,3.39,1.17,5,.87a20.49,20.49,0,0,0,.43,2.17c-0.9-.71-3.68-1-4.76-0.22,0.64,1,3.13,1.35,4.55.87,0.6,0.26.4,1.33,0.43,2.17-1-.87-2.8-1.87-4.55-1.3,0.64,1.3,3,2.09,4.33,2,0.65,0.59-.29,1.43,0,2.38-1-.94-2.71-2.31-4.55-1.73a6,6,0,0,0,4.33,2.38c-0.3.56-.3,1.44-0.65,2-0.83-1.26-1.71-2.48-3.68-2.6a4.58,4.58,0,0,0,3.25,3.25c0,1-.83,1.19-0.86,2.17-1-1.31-1.55-3.07-3.68-3.25a5.82,5.82,0,0,0,3,3.68c-0.13.81-.76,1.12-1.09,1.73-0.61-1.55-1-3.29-2.6-3.9-0.39,1.72.81,3.64,2,4.55-0.85,2.26-2.59,3.62-3.47,5.85a3.1,3.1,0,0,1-.65-1.08c1-1.33,2.44-2.18,2.82-4.12-1.54-.28-2.91,1.39-3.25,3-0.74-.34-0.67-1.49-1.3-2,1.43-1,2.94-1.83,3.46-3.68-1.9-.6-2.7,1.77-3.9,2.6a1.75,1.75,0,0,0-.43-1.3c1.41-1,3.14-1.63,3.68-3.47-1.63-.47-3,1.16-3.68,2.38-0.71-.37-0.52-1.64-0.86-2.38A5.31,5.31,0,0,0,210,347c-1.86-.6-3.17,1.13-4.33,2-0.13-.38.26-1.27-0.22-1.3,1.61-.7,3.39-1.23,4.33-2.6-1.25-1-3.6.37-4.12,1.52a6.11,6.11,0,0,1-.43-2.38c2-.26,3.75-0.73,4.55-2.17a4.08,4.08,0,0,0-4.33,1.3c-0.66-.4.25-1,0-1.73a6.32,6.32,0,0,0,4.55-1.52c-0.83-1.42-3.64-.13-4.33.65-0.35-.37.06-1.81,0.22-2.38,1.63,0.19,3.92-.06,4.76-1.3-1.08-.86-3.58-0.37-4.33.44-0.66-.4.25-1,0-1.73,1.54,0.49,4.14.27,5-.65-0.54-1.28-3.58-.55-4.55-0.22,0-1,.53-1.34.65-2.17,1.32,0.59,4.2.74,5-.43-0.67-1-3.3-.75-4.55-0.44a5.61,5.61,0,0,1,.65-1.52c1,0.69,3.81,1,5,.22-0.63-1-2.88-1.45-4.33-.87-0.69-.64,1.22-1.39.43-2.16-0.81-.54-1,1.09-1.52,1.52-0.93-1.3-1.47-3-3.25-3.46-1,1.65,1.12,3.74,2.82,4.11-0.11.75-.58,1.16-0.65,2-1.17-1-1.45-2.88-3.25-3.25-1,1.61,1.09,3.76,2.81,4.11a7.41,7.41,0,0,0-.64,2.17c-1.23-1-2.35-3.11-4.33-2.6a4,4,0,0,0,3.9,3.25,9.51,9.51,0,0,1-.43,2.17,8.24,8.24,0,0,0-3.47-2.82v0.09a3.45,3.45,0,0,0-1.09-2.53c-1.57.31-1.12,3.53-.86,5a9.68,9.68,0,0,1-1.73-1.52c1.1-1.51.72-5.3-1.52-5.41-0.77,1.67.47,4.07,0.43,5-0.66-.36-2-1.62-2.59-0.65,0.26,1,1.66.79,2.16,1.52a4.46,4.46,0,0,0-3.25,3.46c1.66,0.12,3.23-1.66,4.12-3,0.41,0.46,1.86,1,1.52,1.52-1.81.29-3.33,0.86-3.68,2.6a8.63,8.63,0,0,0,.87-0.16,3.89,3.89,0,0,0-1.68,2.59c-0.84-.18-0.35-1.68-1.52-1.52-1,.41.5,1.3,0.43,2.17a6.8,6.8,0,0,0-4.54.65v0.65c2.25,2.29,5.28-2.19,6.28.65-1.25.7-3.58,0.31-4.33,1.52,0.75,1.72,4.7.8,5-.65,0.84,0.24,1.11,1.06,2,1.3-1.39.84-3.27,1.21-3.9,2.81,1.62,1.56,4.24-.57,4.55-2.38a11.41,11.41,0,0,0,2,.65c-1,1.27-2.86,1.62-3.25,3.47,1.65,0.93,3.89-.93,4.12-2.82a6.17,6.17,0,0,0,4.12.87c0.37,0.5.2,1.53,0.65,2-0.69-.07-3.82-1-5,0,0.28,1.58,3.71,1.64,5,.87,0.58,0.29.37,1.37,0.86,1.73-1,.34-3.33-1.1-4.54,0-0.42,1.42,3.46,2,4.76,1.09a6,6,0,0,1,1.08,2.16c-1.4-.42-4.14-0.42-4.77.65,0.66,1.46,4.44,1,5-.21a5.28,5.28,0,0,1,1.09,2c-1.53-.37-3.93-0.33-4.55.87,1.23,1.76,4.45-.18,5.41.43-0.44.89-2.75,0.87-4.11,1.73-0.56.36-.79,0.8-1.3,1.08-1,3.37-1.16,6.89,1.95,8-0.29,1.45-.83,2.63-1.08,4.12-2.81.49-4.74,2.87-3.9,5.85,1.37,4.84,19.92,4.67,22.31.22,0.42-3.82-1.46-5.33-4.12-6.07-0.23-1.57-.79-2.82-1.08-4.33,3.27-.4,3.75-5.27,1.95-8.23-1.36-2.24-4.87-2-7.8-2.17a10.33,10.33,0,0,1,0-4.55c3.77,0.09,6.14-1.23,8.67-2.38,1,1.34,2.57,3.13,4.77,2.6-0.22-1.94-2.11-2.23-3.68-2.82,1.67-2.25,4.11,2.73,6.5.44-0.62-1.33-2.46-1.43-3.9-2-1-.28,1-1.09,1.08-1.73,1.13,1.14,4.37,2,5.42.22-0.66-1.14-2.79-.82-4.55-0.87-0.12-.77.77-0.53,0.65-1.3,1.81,0.83,4.23.71,5.41-.65v-0.65C231.56,347.88,229.69,348.67,228.34,349ZM218.16,336.2c-0.52-.28-0.44-1.15-0.87-1.52a4.3,4.3,0,0,0,2.82-3.9c0.54,0.54.77,1.4,1.3,2a6.08,6.08,0,0,0-3.25,3.43v0Zm-16.8,0a4.47,4.47,0,0,0,3.37,2.18c0.07,0.87-.38,1.2-0.21,2.17-1.31-.74-2.14-2-4.17-2a1.07,1.07,0,0,0-.21-0.69,2,2,0,0,0,1.22-1.72v0.06Zm-0.53,7.38c-1.27.79-1.51,3-.65,4.33-0.37.63-.79-0.49-1.52-0.22a13.09,13.09,0,0,0,.87-4.77c-1.22.44-2,2.49-1.52,3.9-0.72.64-1.11-.9-1.95-0.87a13.39,13.39,0,0,0,2.17-4.55c-1.61.49-2.46,1.73-2.6,3.68-0.56-.22-0.73-0.86-1.3-1.08a7,7,0,0,0,2.81-3.89c1-.39,1.87-0.88,2.88-1.25,0.45,1.82,2.16,2.38,4.27,2.54v2.17c-1.07-.9-2.6-2.42-4.33-2,0.37,2,2.12,2.65,4.33,2.81v2.17a9.74,9.74,0,0,0-3.25-1.3c0.16-.8-0.37-0.92-0.21-1.73v0.06Zm3.9,5.85a14.48,14.48,0,0,0-3.68-1.3v-0.87c1.21,0.15,2.25.66,3.47,0.22-0.18.83,0.32,1,.2,1.89v0.06Zm6.5,10.61a4.43,4.43,0,0,1,.43,2.16c-1.06.2-.68-1-1.3-1.3,0.07-.56.67-0.53,0.86-0.92V360Zm3.47,25.34c-4.62.31-10.12-.54-12.35-2.6v-0.87c4.79,3,15.78,2.92,20.58,0-0.7,2.67-4.9,3.19-8.24,3.42v0Zm5.41-6.93c0.84-.33,2.1.79,2.6,1.52-3.18,4.38-16.36,4-20.14.43-0.11-1.48,1.17-1.57,1.95-2.17,1.25,4.93,14.85,5,15.57.17Zm-0.86.22c-0.78,3.47-11.68,2.88-13.43.22,0.68-1.85.81-3.51,1.51-5.63,3.14,1,7.37.63,10.4-.22-0.09,2.13,1.93,3.71,1.51,5.57v0.06ZM204.72,370c-0.16-1.18.27-1.76,0.22-2.82,3.48,2.25,11.91,2.08,14.95-.43C223.72,373.79,207.15,374.63,204.72,370Zm7.8-5a1.11,1.11,0,0,0,.43-1.73c2.44-.42,5.74.18,6.93,1.73-2.14,3.48-11.52,3.7-14.52.87,0.46-2.07,3-2,5-2.6,1.09,0.19,1,1.55,2.16,1.73h0Zm5-15.59c1.14,0.13,1.9.65,3,.22a3,3,0,0,0-.21,1.73,18.73,18.73,0,0,0-3.9.21,6.42,6.42,0,0,0,1.09-2.18Zm-4.33,7.36c0-1.09.75-1.42,1.08-2.17a4.76,4.76,0,0,0,3.47,1.08,10.63,10.63,0,0,1-4.57,1.08h0Zm6.28-1.73c-0.54-1.33-2.54-1.21-4.33-1.3,0-.64.56-0.74,0.65-1.3a5.7,5.7,0,0,0,4.77.43c-0.06.78,0.4,1,.43,1.73-0.63,0-.9.4-1.53,0.4v0Zm2.38-1.08c0.46-2.16-.88-3.55-0.87-4.55h0.65a14.45,14.45,0,0,0,1.73,3.9c-0.78-.07-0.8.63-1.52,0.63v0Z" transform="translate(-0.74 -29.6)" fill="#231f20"/></svg>